<?xml version="1.0" encoding="utf-8"?>
<!-- Generator: Adobe Illustrator 19.2.0, SVG Export Plug-In . SVG Version: 6.00 Build 0)  -->
<svg version="1.1" id="Layer_1" xmlns="http://www.w3.org/2000/svg" xmlns:xlink="http://www.w3.org/1999/xlink" x="0px" y="0px"
	 width="426.7px" height="426.7px" viewBox="0 0 426.7 426.7" style="enable-background:new 0 0 426.7 426.7;" xml:space="preserve"
	>
<style type="text/css">
	.st0{fill:#6AC259;}
</style>
<g>
	<path class="st0" d="M213.3,60c41,0,79.5,15.9,108.4,44.9c29,29,44.9,67.5,44.9,108.4c0,41-15.9,79.5-44.9,108.4
		c-29,29-67.5,44.9-108.4,44.9c-41,0-79.5-15.9-108.4-44.9c-29-29-44.9-67.5-44.9-108.4s15.9-79.5,44.9-108.4
		C133.9,75.9,172.4,60,213.3,60 M213.3,0C95.5,0,0,95.5,0,213.3s95.5,213.3,213.3,213.3c117.8,0,213.3-95.5,213.3-213.3
		S331.2,0,213.3,0L213.3,0z"/>
</g>
</svg>
