<?xml version="1.0" encoding="utf-8"?>
<!-- Generator: Adobe Illustrator 16.0.0, SVG Export Plug-In . SVG Version: 6.00 Build 0)  -->
<!DOCTYPE svg PUBLIC "-//W3C//DTD SVG 1.1//EN" "http://www.w3.org/Graphics/SVG/1.1/DTD/svg11.dtd">
<svg version="1.1" id="Layer_1" xmlns="http://www.w3.org/2000/svg" xmlns:xlink="http://www.w3.org/1999/xlink" x="0px" y="0px"
	 width="512px" height="512px" viewBox="0 0 512 512" enable-background="new 0 0 512 512" xml:space="preserve">
<path fill="#FFFFFF" d="M480,208h-38.281c-4.531-17.563-11.438-34.125-20.469-49.375l27.094-27.063c12.5-12.5,12.469-32.781,0-45.25
	l-22.625-22.625c-12.531-12.531-32.75-12.531-45.281,0L353.375,90.75c-15.25-9-31.812-15.938-49.375-20.438V32
	c0-17.688-14.312-32-32-32h-32c-17.672,0-32,14.313-32,32v38.313c-17.563,4.5-34.141,11.438-49.375,20.438l-27.078-27.063
	c-12.5-12.5-32.75-12.531-45.25,0L63.672,86.313c-12.5,12.5-12.5,32.75,0,45.25l27.063,27.063c-9,15.25-15.906,31.813-20.438,49.375
	H32c-17.672,0-32,14.313-32,32v32c0,17.688,14.328,32,32,32h38.297c4.531,17.563,11.438,34.125,20.438,49.375l-27.063,27.063
	c-12.5,12.5-12.516,32.75,0,45.28l22.625,22.625c12.5,12.5,32.75,12.5,45.25,0l27.078-27.094
	c15.25,9.031,31.813,15.938,49.375,20.469V480c0,17.688,14.328,32,32,32h32c17.688,0,32-14.312,32-32v-38.281
	c17.562-4.531,34.125-11.438,49.375-20.438l27.062,27.062c12.531,12.5,32.781,12.5,45.281,0l22.625-22.625
	c12.5-12.531,12.5-32.75,0-45.281l-27.062-27.062c9-15.25,15.906-31.812,20.438-49.375H480c17.688,0,32-14.344,32-32v-32
	C512,222.313,497.688,208,480,208z M256,384c-70.688,0-128-57.312-128-128c0-70.687,57.313-128,128-128c70.688,0,128,57.313,128,128
	C384,326.688,326.688,384,256,384z"/>
</svg>
