<?xml version="1.0" encoding="utf-8"?>
<!-- Generator: Adobe Illustrator 19.2.0, SVG Export Plug-In . SVG Version: 6.00 Build 0)  -->
<svg version="1.1" id="Capa_1" xmlns="http://www.w3.org/2000/svg" xmlns:xlink="http://www.w3.org/1999/xlink" x="0px" y="0px"
	 viewBox="0 0 485.2 485.2" style="enable-background:new 0 0 485.2 485.2;" xml:space="preserve">
<style type="text/css">
	.st0{fill:#FFFFFF;}
</style>
<g>
	<path class="st0" d="M394.2,151.6c0,82.4-49.7,92-59,182c0,8.4-6.8,15.2-15.2,15.2H165.2c-8.4,0-15.2-6.8-15.2-15.2h0
		c-9.3-89.9-59-99.5-59-182C91,67.9,158.9,0,242.6,0S394.2,67.9,394.2,151.6z M318.4,363.9H166.8c-8.4,0-15.2,6.8-15.2,15.2
		c0,8.4,6.8,15.2,15.2,15.2h151.6c8.4,0,15.2-6.8,15.2-15.2C333.6,370.7,326.8,363.9,318.4,363.9z M318.4,409.4H166.8
		c-8.4,0-15.2,6.8-15.2,15.2c0,8.4,6.8,15.2,15.2,15.2h151.6c8.4,0,15.2-6.8,15.2-15.2C333.6,416.2,326.8,409.4,318.4,409.4z
		 M212.3,485.2h60.7c16.8,0,30.3-13.6,30.3-30.3H182C182,471.6,195.5,485.2,212.3,485.2z"/>
</g>
</svg>
