<?xml version="1.0" encoding="utf-8"?>
<!-- Generator: Adobe Illustrator 19.2.0, SVG Export Plug-In . SVG Version: 6.00 Build 0)  -->
<svg version="1.1" id="Capa_1" xmlns="http://www.w3.org/2000/svg" xmlns:xlink="http://www.w3.org/1999/xlink" x="0px" y="0px"
	 viewBox="0 0 512 512" style="enable-background:new 0 0 512 512;" xml:space="preserve">
<style type="text/css">
	.st0{fill:#FFFFFF;}
</style>
<g>
	<g>
		<path class="st0" d="M32,271.7v192c0,17.7,14.4,32,32,32h160v-224H32z"/>
	</g>
</g>
<g>
	<g>
		<path class="st0" d="M480,143.7H378.8c7.3-5,13.5-9.9,17.9-14.3c25.8-26,25.8-68.2,0-94.1c-25.1-25.3-68.8-25.2-93.9,0
			c-13.9,13.9-50.7,70.6-45.6,108.4h-2.3c5.1-37.9-31.7-94.5-45.6-108.4c-25.1-25.2-68.8-25.2-93.9,0c-25.8,26-25.8,68.2,0,94.1
			c4.4,4.4,10.6,9.3,17.9,14.3H32c-17.6,0-32,14.4-32,32v48c0,8.8,7.2,16,16,16h208v-64h64v64h208c8.8,0,16-7.2,16-16v-48
			C512,158.1,497.7,143.7,480,143.7z M222.1,142.6c0,0-1.3,1.1-5.9,1.1c-22.1,0-64.3-23-78.1-36.9c-13.4-13.5-13.4-35.5,0-49
			c6.5-6.5,15.1-10.1,24.3-10.1c9.1,0,17.7,3.6,24.2,10.1C208.1,79.5,229.6,134.9,222.1,142.6z M295.8,143.7c-4.5,0-5.9-1-5.9-1.1
			c-7.5-7.7,14-63.1,35.6-84.8c12.9-13,35.5-13.1,48.5,0c13.4,13.5,13.4,35.5,0,49C360.1,120.7,317.9,143.7,295.8,143.7z"/>
	</g>
</g>
<g>
	<g>
		<path class="st0" d="M288,271.7v224h160c17.7,0,32-14.3,32-32v-192H288z"/>
	</g>
</g>
</svg>
