<?xml version="1.0" encoding="utf-8"?>
<!-- Generator: Adobe Illustrator 16.0.0, SVG Export Plug-In . SVG Version: 6.00 Build 0)  -->
<!DOCTYPE svg PUBLIC "-//W3C//DTD SVG 1.1//EN" "http://www.w3.org/Graphics/SVG/1.1/DTD/svg11.dtd">
<svg version="1.1" id="Layer_1" xmlns="http://www.w3.org/2000/svg" xmlns:xlink="http://www.w3.org/1999/xlink" x="0px" y="0px"
	 width="512px" height="512px" viewBox="0 0 512 512" enable-background="new 0 0 512 512" xml:space="preserve">
<path fill="#FFFFFF" d="M256.094,510.47c-131.236,0-238-106.782-238-238.001c0-67.867,29.103-132.68,79.871-177.836
	c14.028-12.484,35.511-11.223,47.996,2.789c12.484,14.013,11.223,35.529-2.806,48.013c-36.258,32.273-57.06,78.559-57.06,127.035
	c0,93.767,76.268,170,170,170c93.75,0,169.984-76.233,169.984-170c0-48.477-20.786-94.762-56.977-127.035
	c-14.078-12.484-15.341-33.935-2.856-48.013c12.484-14.012,34-15.273,48.013-2.789c50.734,45.157,79.82,109.969,79.82,177.836
	C494.078,403.688,387.297,510.47,256.094,510.47z M290.078,204.469v-170c0-18.793-15.207-34-33.984-34c-18.775,0-34,15.208-34,34
	v170c0,18.794,15.224,34,34,34C274.871,238.469,290.078,223.262,290.078,204.469z"/>
</svg>
