<?xml version="1.0" encoding="utf-8"?>
<!-- Generator: Adobe Illustrator 19.2.0, SVG Export Plug-In . SVG Version: 6.00 Build 0)  -->
<svg version="1.1" id="Layer_1" xmlns="http://www.w3.org/2000/svg" xmlns:xlink="http://www.w3.org/1999/xlink" x="0px" y="0px"
	 viewBox="0 0 512 512" style="enable-background:new 0 0 512 512;" xml:space="preserve">
<style type="text/css">
	.st0{fill:#FFFFFF;}
</style>
<g>
	<g>
		<path class="st0" d="M256,0C114.8,0,0,114.8,0,256s114.8,256,256,256s256-114.8,256-256S397.2,0,256,0z M172.8,49.5
			c-15.4,21-26.9,45.9-35.1,70.4c-14.9-5.3-28.7-11.7-41.1-19.1C118,78.8,143.9,61.2,172.8,49.5z M74.9,126.7
			c16,10,34,18.5,53.7,25.3c-6.5,27.3-10.3,56.8-11.4,87.3H34C37.1,197.5,51.8,158.9,74.9,126.7z M74.9,385.3
			C51.8,353.1,37.1,314.5,34,272.7h83.1c1,30.5,4.9,60,11.4,87.3C108.9,366.8,90.9,375.3,74.9,385.3z M96.6,411.2
			c12.4-7.4,26.2-13.7,41.1-19.1c8.2,24.4,19.7,49.3,35.1,70.4C143.9,450.8,118,433.2,96.6,411.2z M239.3,475.5
			c-34.5-12.7-57.7-58-69.6-92.9c21.8-5.2,45.3-8.4,69.6-9.4V475.5z M239.3,339.8c-27.4,1.1-53.9,4.7-78.7,10.7
			c-5.6-24.3-9-50.6-10-77.8h88.7L239.3,339.8L239.3,339.8z M239.3,239.3h-88.7c1-27.3,4.4-53.5,10-77.8c24.8,6,51.3,9.7,78.7,10.7
			V239.3z M239.3,138.8c-24.3-1-47.8-4.2-69.6-9.4c11.9-34.9,35.1-80.2,69.6-92.9V138.8z M437.1,126.7
			c23.1,32.2,37.8,70.8,40.9,112.6h-83.1c-1-30.5-4.9-59.9-11.4-87.3C403.1,145.2,421.1,136.7,437.1,126.7z M415.4,100.8
			c-12.4,7.4-26.2,13.7-41.1,19.1c-8.2-24.4-19.7-49.3-35.1-70.4C368.1,61.2,394,78.8,415.4,100.8z M272.7,36.5
			c34.5,12.7,57.7,58,69.6,92.9c-21.8,5.2-45.3,8.4-69.6,9.4L272.7,36.5L272.7,36.5z M272.7,172.2c27.4-1.1,53.9-4.7,78.7-10.7
			c5.6,24.3,9,50.6,10,77.8h-88.7V172.2z M272.7,272.6h88.7c-1,27.3-4.4,53.6-10,78c-24.8-6-51.3-9.7-78.7-10.7V272.6z M272.7,475.5
			V373.2c24.3,1,47.8,4.2,69.6,9.4C330.4,417.5,307.2,462.9,272.7,475.5z M339.2,462.5c15.4-21,26.9-45.9,35.1-70.4
			c14.9,5.3,28.7,11.7,41.1,19.1C394,433.2,368.1,450.8,339.2,462.5z M437.1,385.3c-16-10-34-18.5-53.6-25.3
			c6.5-27.3,10.3-56.9,11.4-87.4H478C474.9,314.4,460.2,353.1,437.1,385.3z"/>
	</g>
</g>
</svg>
