<?xml version="1.0" encoding="utf-8"?>
<!-- Generator: Adobe Illustrator 19.2.0, SVG Export Plug-In . SVG Version: 6.00 Build 0)  -->
<svg version="1.1" id="Capa_1" xmlns="http://www.w3.org/2000/svg" xmlns:xlink="http://www.w3.org/1999/xlink" x="0px" y="0px"
	 viewBox="0 0 511.6 511.6" style="enable-background:new 0 0 511.6 511.6;" xml:space="preserve">
<style type="text/css">
	.st0{fill:#FFFFFF;}
</style>
<g>
	<g>
		<path class="st0" d="M54.8,201c-15.2,0-28.2,5.3-38.8,16C5.3,227.6,0,240.6,0,255.8C0,271,5.3,284,16,294.6
			c10.7,10.7,23.6,16,38.8,16c15.2,0,28.2-5.3,38.8-16c10.7-10.7,16-23.6,16-38.8c0-15.2-5.3-28.2-16-38.8C83,206.3,70,201,54.8,201
			z"/>
		<path class="st0" d="M54.8,54.8c-15.2,0-28.2,5.3-38.8,16C5.3,81.5,0,94.4,0,109.6c0,15.2,5.3,28.2,16,38.8
			c10.7,10.7,23.6,16,38.8,16c15.2,0,28.2-5.3,38.8-16c10.7-10.7,16-23.6,16-38.8c0-15.2-5.3-28.2-16-38.8
			C83,60.1,70.1,54.8,54.8,54.8z"/>
		<path class="st0" d="M54.8,347.2c-15.2,0-28.2,5.3-38.8,16C5.3,373.8,0,386.8,0,402c0,15.2,5.3,28.2,16,38.8
			c10.7,10.7,23.6,16,38.8,16c15.2,0,28.2-5.3,38.8-16c10.7-10.7,16-23.6,16-38.8c0-15.2-5.3-28.2-16-38.8
			C83,352.5,70.1,347.2,54.8,347.2z"/>
		<path class="st0" d="M508.9,75.8c-1.8-1.8-3.9-2.7-6.4-2.7H155.3c-2.5,0-4.6,0.9-6.4,2.7c-1.8,1.8-2.7,3.9-2.7,6.4V137
			c0,2.5,0.9,4.6,2.7,6.4c1.8,1.8,4,2.7,6.4,2.7h347.2c2.5,0,4.6-0.9,6.4-2.7c1.8-1.8,2.7-3.9,2.7-6.4V82.2
			C511.6,79.7,510.7,77.6,508.9,75.8z"/>
		<path class="st0" d="M502.5,219.3H155.3c-2.5,0-4.6,0.9-6.4,2.7c-1.8,1.8-2.7,3.9-2.7,6.4v54.8c0,2.5,0.9,4.6,2.7,6.4
			c1.8,1.8,4,2.7,6.4,2.7h347.2c2.5,0,4.6-0.9,6.4-2.7c1.8-1.8,2.7-3.9,2.7-6.4v-54.8c0-2.5-0.9-4.6-2.7-6.4
			C507.1,220.2,505,219.3,502.5,219.3z"/>
		<path class="st0" d="M502.5,365.4H155.3c-2.5,0-4.6,0.9-6.4,2.7c-1.8,1.8-2.7,3.9-2.7,6.4v54.8c0,2.5,0.9,4.6,2.7,6.4
			c1.8,1.8,4,2.7,6.4,2.7h347.2c2.5,0,4.6-0.9,6.4-2.7c1.8-1.8,2.7-3.9,2.7-6.4v-54.8c0-2.5-0.9-4.6-2.7-6.4
			C507.1,366.4,505,365.4,502.5,365.4z"/>
	</g>
</g>
</svg>
