<svg xmlns="http://www.w3.org/2000/svg" width="16" height="13" viewBox="0 0 16 13"><defs><style>.a{fill:#fff;}</style></defs><title>twitter</title><path class="a" d="M16,3a6.55,6.55,0,0,1-1.89.52,3.3,3.3,0,0,0,1.44-1.82,6.63,6.63,0,0,1-2.09.8,3.29,3.29,0,0,0-5.59,3A9.32,9.32,0,0,1,1.11,2.1a3.29,3.29,0,0,0,1,4.38A3.28,3.28,0,0,1,.64,6.07v0A3.29,3.29,0,0,0,3.28,9.33a3.33,3.33,0,0,1-.87.11,3.08,3.08,0,0,1-.62-0.06,3.28,3.28,0,0,0,3.07,2.28,6.59,6.59,0,0,1-4.08,1.4A7,7,0,0,1,0,13,9.26,9.26,0,0,0,5,14.5a9.28,9.28,0,0,0,9.34-9.34V4.74A6.59,6.59,0,0,0,16,3Z" transform="translate(0 -1.5)"/></svg>