<?xml version="1.0" encoding="utf-8"?>
<!-- Generator: Adobe Illustrator 19.2.0, SVG Export Plug-In . SVG Version: 6.00 Build 0)  -->
<svg version="1.1" id="Capa_1" xmlns="http://www.w3.org/2000/svg" xmlns:xlink="http://www.w3.org/1999/xlink" x="0px" y="0px"
	 viewBox="0 0 512 512" style="enable-background:new 0 0 512 512;" xml:space="preserve">
<g>
	<g>
		<path d="M21.9,113.4h468.1c12.1,0,21.9-9.9,21.9-21.9s-9.9-21.9-21.9-21.9H21.9C9.9,69.5,0,79.4,0,91.4S9.9,113.4,21.9,113.4z"/>
		<path d="M21.9,277.9h468.1c12.1,0,21.9-9.9,21.9-21.9s-9.9-21.9-21.9-21.9H21.9C9.9,234.1,0,243.9,0,256S9.9,277.9,21.9,277.9z"/>
		<path d="M21.9,442.5h468.1c12.1,0,21.9-9.9,21.9-21.9s-9.9-21.9-21.9-21.9H21.9C9.9,398.6,0,408.5,0,420.6S9.9,442.5,21.9,442.5z"
			/>
	</g>
</g>
</svg>
