<?xml version="1.0" encoding="utf-8"?>
<!-- Generator: Adobe Illustrator 19.2.0, SVG Export Plug-In . SVG Version: 6.00 Build 0)  -->
<svg version="1.1" id="Layer_1" xmlns="http://www.w3.org/2000/svg" xmlns:xlink="http://www.w3.org/1999/xlink" x="0px" y="0px"
	 width="730.1px" height="79.1px" viewBox="0 0 730.1 79.1" style="enable-background:new 0 0 730.1 79.1;" xml:space="preserve">
<style type="text/css">
	.st0{fill:#FFFFFF;}
</style>
<path class="st0" d="M84.7,13.6H28.5L12.6,61.2h86.2L84.7,13.6z M78.9,52.3C75.6,55,55.7,55,55.7,55s-19.9,0-23.2-2.8
	c-3.1-2.6-3-7.3-3-15.2c0-7.9,1.4-12.1,4.5-15c2.8-2.5,8.3-2.3,21.7-2.3s18.9-0.3,21.7,2.3c3.2,2.9,4.5,7.1,4.5,15
	C81.9,45,82,49.6,78.9,52.3z"/>
<g>
	<path class="st0" d="M158.5,29.3h-3.9l-1-5.7c-0.9-0.9-2-1.6-3.3-2.1c-1.3-0.6-2.8-0.8-4.6-0.8c-4.2,0-7.4,1.5-9.7,4.6
		c-2.3,3.1-3.4,6.9-3.4,11.6v0.6c0,4.7,1.1,8.6,3.3,11.6c2.2,3.1,5.3,4.6,9.2,4.6c1.8,0,3.5-0.3,5-0.9c1.5-0.6,2.7-1.3,3.5-2.1
		l1-5.7h3.9v7.2c-1.2,1.5-2.9,2.8-5.3,4c-2.3,1.2-5,1.8-8.1,1.8c-5.3,0-9.6-1.9-13-5.8s-5.1-8.8-5.1-14.7v-0.6
		c0-5.9,1.7-10.8,5-14.7c3.3-3.9,7.7-5.8,13-5.8c3.1,0,5.8,0.6,8.1,1.8c2.3,1.2,4.1,2.5,5.3,4V29.3z"/>
	<path class="st0" d="M164.3,42c0-4.4,1.2-8.1,3.6-11c2.4-2.9,5.7-4.3,9.8-4.3c4.2,0,7.4,1.4,9.9,4.3c2.4,2.9,3.6,6.5,3.6,11v0.6
		c0,4.5-1.2,8.2-3.6,11c-2.4,2.9-5.7,4.3-9.8,4.3c-4.2,0-7.5-1.4-9.9-4.3c-2.4-2.9-3.6-6.5-3.6-11V42z M169.8,42.6
		c0,3.2,0.7,5.8,2,7.9c1.3,2.1,3.3,3.1,6,3.1c2.6,0,4.6-1,5.9-3.1c1.4-2.1,2-4.7,2-7.9V42c0-3.2-0.7-5.8-2-7.9
		c-1.4-2.1-3.3-3.1-6-3.1c-2.6,0-4.6,1-6,3.1s-2,4.7-2,7.9V42.6z"/>
	<path class="st0" d="M195.2,53.8l4.5-0.8V31.6l-4.5-0.8v-3.5h9.5l0.4,3.9c1-1.4,2.2-2.5,3.7-3.3c1.5-0.8,3.3-1.2,5.3-1.2
		c2,0,3.7,0.5,5.2,1.4c1.4,0.9,2.5,2.3,3.2,4.2c0.9-1.7,2.2-3.1,3.8-4.1c1.6-1,3.4-1.5,5.5-1.5c3.1,0,5.5,1.1,7.3,3.2
		c1.8,2.1,2.7,5.3,2.7,9.5v13.7l4.5,0.8v3.5h-14.6v-3.5l4.5-0.8V39.3c0-3-0.5-5.1-1.5-6.3c-1-1.2-2.5-1.8-4.5-1.8
		c-1.9,0-3.4,0.7-4.6,2c-1.2,1.3-1.8,3-2,5.1v14.8l4.5,0.8v3.5h-14.5v-3.5l4.5-0.8V39.3c0-2.8-0.5-4.9-1.6-6.2s-2.6-2-4.5-2
		c-1.7,0-3,0.3-4.1,1c-1.1,0.7-1.9,1.7-2.5,2.9v18l4.5,0.8v3.5h-14.5V53.8z"/>
	<path class="st0" d="M249,53.8l4.5-0.8V31.6l-4.5-0.8v-3.5h9.5l0.4,3.9c1-1.4,2.2-2.5,3.7-3.3c1.5-0.8,3.3-1.2,5.3-1.2
		c2,0,3.7,0.5,5.2,1.4c1.4,0.9,2.5,2.3,3.2,4.2c0.9-1.7,2.2-3.1,3.8-4.1c1.6-1,3.4-1.5,5.5-1.5c3.1,0,5.5,1.1,7.3,3.2
		c1.8,2.1,2.7,5.3,2.7,9.5v13.7l4.5,0.8v3.5h-14.6v-3.5l4.5-0.8V39.3c0-3-0.5-5.1-1.5-6.3c-1-1.2-2.5-1.8-4.5-1.8
		c-1.9,0-3.4,0.7-4.6,2c-1.2,1.3-1.8,3-2,5.1v14.8l4.5,0.8v3.5h-14.5v-3.5l4.5-0.8V39.3c0-2.8-0.5-4.9-1.6-6.2s-2.6-2-4.5-2
		c-1.7,0-3,0.3-4.1,1c-1.1,0.7-1.9,1.7-2.5,2.9v18l4.5,0.8v3.5H249V53.8z"/>
	<path class="st0" d="M303.7,42c0-4.4,1.2-8.1,3.6-11c2.4-2.9,5.7-4.3,9.8-4.3c4.2,0,7.4,1.4,9.9,4.3c2.4,2.9,3.6,6.5,3.6,11v0.6
		c0,4.5-1.2,8.2-3.6,11c-2.4,2.9-5.7,4.3-9.8,4.3c-4.2,0-7.5-1.4-9.9-4.3c-2.4-2.9-3.6-6.5-3.6-11V42z M309.1,42.6
		c0,3.2,0.7,5.8,2,7.9c1.3,2.1,3.3,3.1,6,3.1c2.6,0,4.6-1,5.9-3.1c1.4-2.1,2-4.7,2-7.9V42c0-3.2-0.7-5.8-2-7.9
		c-1.4-2.1-3.3-3.1-6-3.1c-2.6,0-4.6,1-6,3.1s-2,4.7-2,7.9V42.6z"/>
	<path class="st0" d="M355.9,53.8c-1,1.4-2.2,2.4-3.6,3.1c-1.4,0.7-3.1,1.1-4.9,1.1c-3.7,0-6.5-1.3-8.6-4c-2.1-2.7-3.1-6.2-3.1-10.5
		v-0.6c0-4.8,1-8.7,3.1-11.7c2.1-3,5-4.5,8.7-4.5c1.8,0,3.4,0.3,4.7,1c1.4,0.7,2.5,1.6,3.5,2.9V18.3l-4.5-0.8V14h4.5h5.5v39.1
		l4.5,0.8v3.5h-9.3L355.9,53.8z M341.1,43.4c0,3,0.6,5.5,1.9,7.3c1.2,1.8,3.2,2.8,5.8,2.8c1.6,0,3-0.4,4.1-1.1
		c1.1-0.7,2-1.8,2.8-3.1v-14c-0.7-1.3-1.6-2.3-2.8-3c-1.1-0.7-2.5-1.1-4.1-1.1c-2.6,0-4.5,1.1-5.8,3.3c-1.3,2.2-1.9,5-1.9,8.5V43.4z
		"/>
	<path class="st0" d="M369.8,42c0-4.4,1.2-8.1,3.6-11c2.4-2.9,5.7-4.3,9.8-4.3c4.2,0,7.4,1.4,9.9,4.3c2.4,2.9,3.6,6.5,3.6,11v0.6
		c0,4.5-1.2,8.2-3.6,11c-2.4,2.9-5.7,4.3-9.8,4.3c-4.2,0-7.5-1.4-9.9-4.3s-3.6-6.5-3.6-11V42z M375.3,42.6c0,3.2,0.7,5.8,2,7.9
		c1.3,2.1,3.3,3.1,6,3.1c2.6,0,4.6-1,5.9-3.1c1.4-2.1,2-4.7,2-7.9V42c0-3.2-0.7-5.8-2-7.9s-3.3-3.1-6-3.1s-4.6,1-6,3.1s-2,4.7-2,7.9
		V42.6z"/>
	<path class="st0" d="M401.7,30.8v-3.5h9.4l0.5,4.4c0.9-1.5,1.9-2.7,3.2-3.6c1.3-0.9,2.7-1.3,4.3-1.3c0.4,0,0.9,0,1.3,0.1
		s0.8,0.1,1,0.2l-0.7,5.1l-3.1-0.2c-1.4,0-2.7,0.3-3.6,1c-1,0.7-1.7,1.6-2.3,2.9v17.3l4.5,0.8v3.5h-14.5v-3.5l4.5-0.8V31.6
		L401.7,30.8z"/>
	<path class="st0" d="M438.5,57.9c-4.2,0-7.5-1.4-10-4.2s-3.7-6.4-3.7-10.9v-1.2c0-4.3,1.3-7.8,3.8-10.7c2.5-2.8,5.6-4.3,9.1-4.3
		c4,0,7.1,1.2,9.2,3.7c2.1,2.4,3.1,5.7,3.1,9.8v3.4h-19.5l-0.1,0.1c0.1,2.9,0.8,5.3,2.2,7.1s3.4,2.8,5.9,2.8c1.9,0,3.5-0.3,4.9-0.8
		c1.4-0.5,2.6-1.3,3.6-2.2l2.1,3.6c-1.1,1-2.5,1.9-4.3,2.6C443.1,57.6,441,57.9,438.5,57.9z M437.7,31c-1.8,0-3.4,0.8-4.7,2.3
		c-1.3,1.5-2.1,3.5-2.4,5.8l0.1,0.1h13.9v-0.7c0-2.2-0.6-3.9-1.7-5.4C441.6,31.7,439.9,31,437.7,31z"/>
	<path class="st0" d="M487.6,16.9c4.3,0,7.7,1.1,10.1,3.3s3.6,5.2,3.6,8.8c0,3.7-1.2,6.6-3.6,8.8c-2.4,2.2-5.8,3.3-10.1,3.3H479v12
		l4.5,0.8v3.5H469v-3.5l4.5-0.8V21.2l-4.5-0.8v-3.5h4.5H487.6z M479,36.8h8.6c2.7,0,4.8-0.7,6.2-2.2c1.4-1.5,2-3.3,2-5.6
		c0-2.2-0.7-4.1-2-5.6c-1.4-1.5-3.4-2.3-6.2-2.3H479V36.8z"/>
	<path class="st0" d="M505.2,57.3v-3.5l4.5-0.8V21.2l-4.5-0.8v-3.5h31.1v9.7h-4.7l-0.4-5.4h-15.9v13.1h15.5v4.3h-15.5v14.5h16.3
		l0.4-5.4h4.7v9.7H505.2z"/>
	<path class="st0" d="M574.8,16.9v9h-4.7l-0.4-4.6h-9v31.9l4.5,0.8v3.5h-14.5v-3.5l4.5-0.8V21.2h-9l-0.4,4.6h-4.7v-9H574.8z"/>
	<path class="st0" d="M631.5,24.9l-0.1,0l-13.1,32.5h-3.6l-13.1-32.4l-0.1,0l0.6,16.4v11.7l4.5,0.8v3.5h-14.5v-3.5l4.5-0.8V21.2
		l-4.5-0.8v-3.5h4.5h7l12.9,32.9h0.2l12.9-32.9H641v3.5l-4.5,0.8v31.9l4.5,0.8v3.5h-14.5v-3.5l4.5-0.8V41.3L631.5,24.9z"/>
	<path class="st0" d="M645.4,53.8l4.5-0.8V31.6l-4.5-0.8v-3.5h10v25.8l4.5,0.8v3.5h-14.5V53.8z M655.4,19.5H650V14h5.5V19.5z"/>
	<path class="st0" d="M663.3,53.8l4.5-0.8V31.6l-4.5-0.8v-3.5h9.4l0.4,4.5c1-1.6,2.3-2.8,3.8-3.7c1.5-0.9,3.2-1.3,5.2-1.3
		c3.2,0,5.8,1,7.5,2.9c1.8,1.9,2.7,4.8,2.7,8.8v14.7l4.5,0.8v3.5h-14.5v-3.5l4.5-0.8V38.5c0-2.7-0.5-4.5-1.6-5.6
		c-1-1.1-2.6-1.7-4.8-1.7c-1.6,0-3,0.4-4.2,1.1c-1.2,0.8-2.2,1.8-2.9,3.1v17.7l4.5,0.8v3.5h-14.5V53.8z"/>
	<path class="st0" d="M700.8,53.8l4.5-0.8V31.6l-4.5-0.8v-3.5h10v25.8l4.5,0.8v3.5h-14.5V53.8z M710.8,19.5h-5.5V14h5.5V19.5z"/>
</g>
</svg>
