<?xml version="1.0" encoding="utf-8"?>
<!-- Generator: Adobe Illustrator 19.2.0, SVG Export Plug-In . SVG Version: 6.00 Build 0)  -->
<svg version="1.1" id="Layer_1" xmlns="http://www.w3.org/2000/svg" xmlns:xlink="http://www.w3.org/1999/xlink" x="0px" y="0px"
	 width="730.1px" height="79.1px" viewBox="0 0 730.1 79.1" style="enable-background:new 0 0 730.1 79.1;" xml:space="preserve">
<style type="text/css">
	.st0{fill:#FFFFFF;}
	.st1{font-family:'RobotoSlab-Regular';}
	.st2{font-size:56.958px;}
</style>
<path class="st0" d="M84.7,13.6H28.5L12.6,61.2h86.2L84.7,13.6z M78.9,52.3C75.6,55,55.7,55,55.7,55s-19.9,0-23.2-2.8
	c-3.1-2.6-3-7.3-3-15.2c0-7.9,1.4-12.1,4.5-15c2.8-2.5,8.3-2.3,21.7-2.3s18.9-0.3,21.7,2.3c3.2,2.9,4.5,7.1,4.5,15
	C81.9,45,82,49.6,78.9,52.3z"/>
<text transform="matrix(1 0 0 1 125.104 57.3447)" class="st0 st1 st2">Commodore PET Mini</text>
</svg>
