<svg xmlns="http://www.w3.org/2000/svg" viewBox="0 0 494.88 145.5"><defs><style>.a,.b,.h,.i,.j{fill:none;}.a,.j{stroke:#a7a9ac;}.a,.b,.e,.h,.i,.j{stroke-miterlimit:10;}.a,.b,.e,.i,.j{stroke-width:3px;}.b,.i{stroke:#ba1d84;}.c{fill:#231f20;}.d{fill:#fff;}.e,.g{fill:#939598;}.e{stroke:#231f20;}.f{fill:#fff5bb;}.h{stroke:#fff;stroke-width:4px;}.i,.j{stroke-linecap:round;}</style></defs><title>IDC cable mirrored</title><line class="a" x1="32.5" y1="136.31" x2="465.38" y2="136.31"/><line class="a" x1="32.5" y1="131.31" x2="465.38" y2="131.31"/><line class="a" x1="32.5" y1="126.31" x2="465.38" y2="126.31"/><line class="a" x1="32.5" y1="121.31" x2="465.38" y2="121.31"/><line class="a" x1="32.5" y1="116.31" x2="465.38" y2="116.31"/><line class="a" x1="32.5" y1="111.31" x2="465.38" y2="111.31"/><line class="a" x1="32.5" y1="106.31" x2="465.38" y2="106.31"/><line class="a" x1="32.5" y1="101.31" x2="465.38" y2="101.31"/><line class="a" x1="32.5" y1="96.31" x2="465.38" y2="96.31"/><line class="a" x1="32.5" y1="91.31" x2="465.38" y2="91.31"/><line class="a" x1="32.5" y1="86.31" x2="465.38" y2="86.31"/><line class="a" x1="32.5" y1="81.31" x2="465.38" y2="81.31"/><line class="a" x1="32.5" y1="76.31" x2="465.38" y2="76.31"/><line class="a" x1="32.5" y1="71.31" x2="465.38" y2="71.31"/><line class="a" x1="32.5" y1="66.31" x2="465.38" y2="66.31"/><line class="a" x1="32.5" y1="61.31" x2="465.38" y2="61.31"/><line class="a" x1="32.5" y1="56.31" x2="465.38" y2="56.31"/><line class="a" x1="32.5" y1="51.31" x2="465.38" y2="51.31"/><line class="a" x1="32.5" y1="46.31" x2="465.38" y2="46.31"/><line class="a" x1="32.5" y1="41.31" x2="465.38" y2="41.31"/><line class="a" x1="32.5" y1="36.31" x2="465.38" y2="36.31"/><line class="a" x1="32.5" y1="31.31" x2="465.38" y2="31.31"/><line class="a" x1="32.5" y1="26.31" x2="465.38" y2="26.31"/><line class="a" x1="32.5" y1="21.31" x2="465.38" y2="21.31"/><line class="a" x1="32.5" y1="16.31" x2="465.38" y2="16.31"/><line class="b" x1="32.5" y1="11.31" x2="465.38" y2="11.31"/><rect class="c" x="4.5" y="1.31" width="28" height="142.5"/><rect class="d" x="19.84" y="8.06" width="4.2" height="4.2"/><rect class="d" x="19.84" y="18.14" width="4.2" height="4.2"/><rect class="d" x="19.84" y="13.1" width="4.2" height="4.2"/><rect class="d" x="19.84" y="23.18" width="4.2" height="4.2"/><rect class="d" x="19.84" y="33.26" width="4.2" height="4.2"/><rect class="d" x="19.84" y="28.22" width="4.2" height="4.2"/><rect class="d" x="19.84" y="38.3" width="4.2" height="4.2"/><rect class="d" x="19.84" y="48.39" width="4.2" height="4.2"/><rect class="d" x="19.84" y="43.35" width="4.2" height="4.2"/><rect class="d" x="19.84" y="53.43" width="4.2" height="4.2"/><rect class="d" x="19.84" y="63.51" width="4.2" height="4.2"/><rect class="d" x="19.84" y="58.47" width="4.2" height="4.2"/><rect class="d" x="19.84" y="68.55" width="4.2" height="4.2"/><rect class="d" x="19.84" y="78.63" width="4.2" height="4.2"/><rect class="d" x="19.84" y="73.59" width="4.2" height="4.2"/><rect class="d" x="19.84" y="83.67" width="4.2" height="4.2"/><rect class="d" x="19.84" y="93.75" width="4.2" height="4.2"/><rect class="d" x="19.84" y="88.71" width="4.2" height="4.2"/><rect class="d" x="19.84" y="98.79" width="4.2" height="4.2"/><rect class="d" x="19.84" y="108.88" width="4.2" height="4.2"/><rect class="d" x="19.84" y="103.83" width="4.2" height="4.2"/><rect class="d" x="19.84" y="113.92" width="4.2" height="4.2"/><rect class="d" x="19.84" y="124" width="4.2" height="4.2"/><rect class="d" x="19.84" y="118.96" width="4.2" height="4.2"/><rect class="d" x="19.84" y="134.36" width="4.2" height="4.2"/><rect class="d" x="19.84" y="129.32" width="4.2" height="4.2"/><rect class="d" x="12.84" y="8.06" width="4.2" height="4.2"/><rect class="d" x="12.84" y="18.14" width="4.2" height="4.2"/><rect class="d" x="12.84" y="13.1" width="4.2" height="4.2"/><rect class="d" x="12.84" y="23.18" width="4.2" height="4.2"/><rect class="d" x="12.84" y="33.26" width="4.2" height="4.2"/><rect class="d" x="12.84" y="28.22" width="4.2" height="4.2"/><rect class="d" x="12.84" y="38.3" width="4.2" height="4.2"/><rect class="d" x="12.84" y="48.39" width="4.2" height="4.2"/><rect class="d" x="12.84" y="43.35" width="4.2" height="4.2"/><rect class="d" x="12.84" y="53.43" width="4.2" height="4.2"/><rect class="d" x="12.84" y="63.51" width="4.2" height="4.2"/><rect class="d" x="12.84" y="58.47" width="4.2" height="4.2"/><rect class="d" x="12.84" y="68.55" width="4.2" height="4.2"/><rect class="d" x="12.84" y="78.63" width="4.2" height="4.2"/><rect class="d" x="12.84" y="73.59" width="4.2" height="4.2"/><rect class="d" x="12.84" y="83.67" width="4.2" height="4.2"/><rect class="d" x="12.84" y="93.75" width="4.2" height="4.2"/><rect class="d" x="12.84" y="88.71" width="4.2" height="4.2"/><rect class="d" x="12.84" y="98.79" width="4.2" height="4.2"/><rect class="d" x="12.84" y="108.88" width="4.2" height="4.2"/><rect class="d" x="12.84" y="103.83" width="4.2" height="4.2"/><rect class="d" x="12.84" y="113.92" width="4.2" height="4.2"/><rect class="d" x="12.84" y="124" width="4.2" height="4.2"/><rect class="d" x="12.84" y="118.96" width="4.2" height="4.2"/><rect class="d" x="12.84" y="134.36" width="4.2" height="4.2"/><rect class="d" x="12.84" y="129.32" width="4.2" height="4.2"/><rect class="c" y="62.06" width="4.5" height="20"/><rect class="e" x="465.38" y="1.5" width="28" height="142.5"/><rect class="f" x="480.72" y="8.25" width="4.2" height="4.2"/><rect class="f" x="480.72" y="18.33" width="4.2" height="4.2"/><rect class="f" x="480.72" y="13.29" width="4.2" height="4.2"/><rect class="f" x="480.72" y="23.37" width="4.2" height="4.2"/><rect class="f" x="480.72" y="33.45" width="4.2" height="4.2"/><rect class="f" x="480.72" y="28.41" width="4.2" height="4.2"/><rect class="f" x="480.72" y="38.49" width="4.2" height="4.2"/><rect class="f" x="480.72" y="48.58" width="4.2" height="4.2"/><rect class="f" x="480.72" y="43.54" width="4.2" height="4.2"/><rect class="f" x="480.72" y="53.62" width="4.2" height="4.2"/><rect class="f" x="480.72" y="63.7" width="4.2" height="4.2"/><rect class="f" x="480.72" y="58.66" width="4.2" height="4.2"/><rect class="f" x="480.72" y="68.74" width="4.2" height="4.2"/><rect class="f" x="480.72" y="78.82" width="4.2" height="4.2"/><rect class="f" x="480.72" y="73.78" width="4.2" height="4.2"/><rect class="f" x="480.72" y="83.86" width="4.2" height="4.2"/><rect class="f" x="480.72" y="93.94" width="4.2" height="4.2"/><rect class="f" x="480.72" y="88.9" width="4.2" height="4.2"/><rect class="f" x="480.72" y="98.98" width="4.2" height="4.2"/><rect class="f" x="480.72" y="109.07" width="4.2" height="4.2"/><rect class="f" x="480.72" y="104.02" width="4.2" height="4.2"/><rect class="f" x="480.72" y="114.11" width="4.2" height="4.2"/><rect class="f" x="480.72" y="124.19" width="4.2" height="4.2"/><rect class="f" x="480.72" y="119.15" width="4.2" height="4.2"/><rect class="f" x="480.72" y="134.55" width="4.2" height="4.2"/><rect class="f" x="480.72" y="129.51" width="4.2" height="4.2"/><rect class="f" x="473.72" y="8.25" width="4.2" height="4.2"/><rect class="f" x="473.72" y="18.33" width="4.2" height="4.2"/><rect class="f" x="473.72" y="13.29" width="4.2" height="4.2"/><rect class="f" x="473.72" y="23.37" width="4.2" height="4.2"/><rect class="f" x="473.72" y="33.45" width="4.2" height="4.2"/><rect class="f" x="473.72" y="28.41" width="4.2" height="4.2"/><rect class="f" x="473.72" y="38.49" width="4.2" height="4.2"/><rect class="f" x="473.72" y="48.58" width="4.2" height="4.2"/><rect class="f" x="473.72" y="43.54" width="4.2" height="4.2"/><rect class="f" x="473.72" y="53.62" width="4.2" height="4.2"/><rect class="f" x="473.72" y="63.7" width="4.2" height="4.2"/><rect class="f" x="473.72" y="58.66" width="4.2" height="4.2"/><rect class="f" x="473.72" y="68.74" width="4.2" height="4.2"/><rect class="f" x="473.72" y="78.82" width="4.2" height="4.2"/><rect class="f" x="473.72" y="73.78" width="4.2" height="4.2"/><rect class="f" x="473.72" y="83.86" width="4.2" height="4.2"/><rect class="f" x="473.72" y="93.94" width="4.2" height="4.2"/><rect class="f" x="473.72" y="88.9" width="4.2" height="4.2"/><rect class="f" x="473.72" y="98.98" width="4.2" height="4.2"/><rect class="f" x="473.72" y="109.07" width="4.2" height="4.2"/><rect class="f" x="473.72" y="104.02" width="4.2" height="4.2"/><rect class="f" x="473.72" y="114.11" width="4.2" height="4.2"/><rect class="f" x="473.72" y="124.19" width="4.2" height="4.2"/><rect class="f" x="473.72" y="119.15" width="4.2" height="4.2"/><rect class="f" x="473.72" y="134.55" width="4.2" height="4.2"/><rect class="f" x="473.72" y="129.51" width="4.2" height="4.2"/><rect class="g" x="490.38" y="62.06" width="4.5" height="20"/><line class="h" x1="225.5" y1="11.31" x2="269.5" y2="11.31"/><line class="h" x1="225.5" y1="16.31" x2="269.5" y2="16.31"/><line class="i" x1="225.5" y1="11.31" x2="269.5" y2="16.31"/><line class="j" x1="225.5" y1="16.31" x2="269.5" y2="11.31"/><line class="h" x1="225.5" y1="21.31" x2="269.5" y2="21.31"/><line class="h" x1="225.5" y1="26.31" x2="269.5" y2="26.31"/><line class="j" x1="225.5" y1="21.31" x2="269.5" y2="26.31"/><line class="j" x1="225.5" y1="26.31" x2="269.5" y2="21.31"/><line class="h" x1="225.5" y1="31.31" x2="269.5" y2="31.31"/><line class="h" x1="225.5" y1="36.31" x2="269.5" y2="36.31"/><line class="j" x1="225.5" y1="31.31" x2="269.5" y2="36.31"/><line class="j" x1="225.5" y1="36.31" x2="269.5" y2="31.31"/><line class="h" x1="225.5" y1="41.31" x2="269.5" y2="41.31"/><line class="h" x1="225.5" y1="46.31" x2="269.5" y2="46.31"/><line class="j" x1="225.5" y1="41.31" x2="269.5" y2="46.31"/><line class="j" x1="225.5" y1="46.31" x2="269.5" y2="41.31"/><line class="h" x1="225.5" y1="51.31" x2="269.5" y2="51.31"/><line class="h" x1="225.5" y1="56.31" x2="269.5" y2="56.31"/><line class="j" x1="225.5" y1="51.31" x2="269.5" y2="56.31"/><line class="j" x1="225.5" y1="56.31" x2="269.5" y2="51.31"/><line class="h" x1="225.5" y1="61.31" x2="269.5" y2="61.31"/><line class="h" x1="225.5" y1="66.31" x2="269.5" y2="66.31"/><line class="j" x1="225.5" y1="61.31" x2="269.5" y2="66.31"/><line class="j" x1="225.5" y1="66.31" x2="269.5" y2="61.31"/><line class="h" x1="225.5" y1="71.31" x2="269.5" y2="71.31"/><line class="h" x1="225.5" y1="76.31" x2="269.5" y2="76.31"/><line class="j" x1="225.5" y1="71.31" x2="269.5" y2="76.31"/><line class="j" x1="225.5" y1="76.31" x2="269.5" y2="71.31"/><line class="h" x1="225.5" y1="81.31" x2="269.5" y2="81.31"/><line class="h" x1="225.5" y1="86.31" x2="269.5" y2="86.31"/><line class="j" x1="225.5" y1="81.31" x2="269.5" y2="86.31"/><line class="j" x1="225.5" y1="86.31" x2="269.5" y2="81.31"/><line class="h" x1="225.5" y1="91.31" x2="269.5" y2="91.31"/><line class="h" x1="225.5" y1="96.31" x2="269.5" y2="96.31"/><line class="j" x1="225.5" y1="91.31" x2="269.5" y2="96.31"/><line class="j" x1="225.5" y1="96.31" x2="269.5" y2="91.31"/><line class="h" x1="225.5" y1="101.31" x2="269.5" y2="101.31"/><line class="h" x1="225.5" y1="106.31" x2="269.5" y2="106.31"/><line class="j" x1="225.5" y1="101.31" x2="269.5" y2="106.31"/><line class="j" x1="225.5" y1="106.31" x2="269.5" y2="101.31"/><line class="h" x1="225.5" y1="111.31" x2="269.5" y2="111.31"/><line class="h" x1="225.5" y1="116.31" x2="269.5" y2="116.31"/><line class="j" x1="225.5" y1="111.31" x2="269.5" y2="116.31"/><line class="j" x1="225.5" y1="116.31" x2="269.5" y2="111.31"/><line class="h" x1="225.5" y1="121.31" x2="269.5" y2="121.31"/><line class="h" x1="225.5" y1="126.31" x2="269.5" y2="126.31"/><line class="j" x1="225.5" y1="121.31" x2="269.5" y2="126.31"/><line class="j" x1="225.5" y1="126.31" x2="269.5" y2="121.31"/><line class="h" x1="225.5" y1="131.31" x2="269.5" y2="131.31"/><line class="h" x1="225.5" y1="136.31" x2="269.5" y2="136.31"/><line class="j" x1="225.5" y1="131.31" x2="269.5" y2="136.31"/><line class="j" x1="225.5" y1="136.31" x2="269.5" y2="131.31"/></svg>