<?xml version="1.0" encoding="utf-8"?>
<!-- Generator: Adobe Illustrator 19.2.0, SVG Export Plug-In . SVG Version: 6.00 Build 0)  -->
<svg version="1.1" id="Layer_1" xmlns="http://www.w3.org/2000/svg" xmlns:xlink="http://www.w3.org/1999/xlink" x="0px" y="0px"
	 viewBox="0 0 841.9 595.3" style="enable-background:new 0 0 841.9 595.3;" xml:space="preserve">
<style type="text/css">
	.st0{fill:#EF3E23;}
</style>
<path class="st0" d="M838.3,297.6c0-0.3,0-0.5,0-0.8h0c-0.2-109.8-16.6-231.7-37.5-252.3C784.6,28.5,683.7,3.3,423.5,3c0,0,0,0,0,0
	c-0.9,0-1.7,0-2.6,0c-0.9,0-1.7,0-2.6,0c0,0,0,0,0,0C158.2,3.3,57.3,28.5,41.1,44.5C20.2,65.2,3.7,187.1,3.6,296.8h0
	c0,0.3,0,0.5,0,0.8c0,0.3,0,0.5,0,0.8h0c0.2,109.8,16.6,231.7,37.5,252.3c16.2,16,117.2,41.2,377.3,41.5c0,0,0,0,0,0
	c0.9,0,1.7,0,2.6,0c0.9,0,1.7,0,2.6,0c0,0,0,0,0,0c260.1-0.3,361.1-25.5,377.3-41.5c20.9-20.7,37.3-142.5,37.5-252.3h0
	C838.3,298.2,838.3,297.9,838.3,297.6z"/>
</svg>
