<?xml version="1.0" encoding="utf-8"?>
<!-- Generator: Adobe Illustrator 19.2.0, SVG Export Plug-In . SVG Version: 6.00 Build 0)  -->
<svg version="1.1" id="Layer_1" xmlns="http://www.w3.org/2000/svg" xmlns:xlink="http://www.w3.org/1999/xlink" x="0px" y="0px"
	 viewBox="0 0 618.1 75.3" style="enable-background:new 0 0 618.1 75.3;" xml:space="preserve">
<style type="text/css">
	.st0{fill:#FFFEFE;}
</style>
<g>
	<path class="st0" d="M46.5,29.3h-3.9l-1-5.7c-0.9-0.9-2-1.6-3.3-2.1c-1.3-0.6-2.8-0.8-4.6-0.8c-4.2,0-7.4,1.5-9.7,4.6
		s-3.4,6.9-3.4,11.6v0.6c0,4.7,1.1,8.6,3.3,11.6c2.2,3.1,5.3,4.6,9.2,4.6c1.8,0,3.5-0.3,5-0.9c1.5-0.6,2.7-1.3,3.5-2.1l1-5.7h3.9
		v7.2c-1.2,1.5-2.9,2.8-5.3,4c-2.3,1.2-5,1.8-8.1,1.8c-5.3,0-9.6-1.9-13-5.8S15,43.4,15,37.5v-0.6c0-5.9,1.7-10.8,5-14.7
		s7.7-5.8,13-5.8c3.1,0,5.8,0.6,8.1,1.8c2.3,1.2,4.1,2.5,5.3,4L46.5,29.3L46.5,29.3z"/>
	<path class="st0" d="M52.3,42c0-4.4,1.2-8.1,3.6-11c2.4-2.9,5.7-4.3,9.8-4.3c4.2,0,7.4,1.4,9.9,4.3c2.4,2.9,3.6,6.5,3.6,11v0.6
		c0,4.5-1.2,8.2-3.6,11c-2.4,2.9-5.7,4.3-9.8,4.3c-4.2,0-7.5-1.4-9.9-4.3c-2.4-2.9-3.6-6.5-3.6-11V42z M57.8,42.6
		c0,3.2,0.7,5.8,2,7.9c1.3,2.1,3.3,3.1,6,3.1c2.6,0,4.6-1,5.9-3.1c1.4-2.1,2-4.7,2-7.9V42c0-3.2-0.7-5.8-2-7.9
		c-1.4-2.1-3.3-3.1-6-3.1c-2.6,0-4.6,1-6,3.1s-2,4.7-2,7.9v0.6H57.8z"/>
	<path class="st0" d="M83.2,53.8l4.5-0.8V31.6l-4.5-0.8v-3.5h9.5l0.4,3.9c1-1.4,2.2-2.5,3.7-3.3s3.3-1.2,5.3-1.2s3.7,0.5,5.2,1.4
		c1.4,0.9,2.5,2.3,3.2,4.2c0.9-1.7,2.2-3.1,3.8-4.1s3.4-1.5,5.5-1.5c3.1,0,5.5,1.1,7.3,3.2s2.7,5.3,2.7,9.5v13.7l4.5,0.8v3.5h-14.6
		v-3.5l4.5-0.8V39.3c0-3-0.5-5.1-1.5-6.3c-1-1.2-2.5-1.8-4.5-1.8c-1.9,0-3.4,0.7-4.6,2c-1.2,1.3-1.8,3-2,5.1v14.8l4.5,0.8v3.5h-14.5
		v-3.5l4.5-0.8V39.3c0-2.8-0.5-4.9-1.6-6.2c-1.1-1.3-2.6-2-4.5-2c-1.7,0-3,0.3-4.1,1c-1.1,0.7-1.9,1.7-2.5,2.9v18l4.5,0.8v3.5H83.4
		v-3.5H83.2z"/>
	<path class="st0" d="M137,53.8l4.5-0.8V31.6l-4.5-0.8v-3.5h9.5l0.4,3.9c1-1.4,2.2-2.5,3.7-3.3s3.3-1.2,5.3-1.2s3.7,0.5,5.2,1.4
		c1.4,0.9,2.5,2.3,3.2,4.2c0.9-1.7,2.2-3.1,3.8-4.1c1.6-1,3.4-1.5,5.5-1.5c3.1,0,5.5,1.1,7.3,3.2s2.7,5.3,2.7,9.5v13.7l4.5,0.8v3.5
		h-14.6v-3.5l4.5-0.8V39.3c0-3-0.5-5.1-1.5-6.3c-1-1.2-2.5-1.8-4.5-1.8c-1.9,0-3.4,0.7-4.6,2c-1.2,1.3-1.8,3-2,5.1v14.8l4.5,0.8v3.5
		h-14.5v-3.5l4.5-0.8V39.3c0-2.8-0.5-4.9-1.6-6.2c-1.1-1.3-2.6-2-4.5-2c-1.7,0-3,0.3-4.1,1c-1.1,0.7-1.9,1.7-2.5,2.9v18l4.5,0.8v3.5
		H137V53.8z"/>
	<path class="st0" d="M191.7,42c0-4.4,1.2-8.1,3.6-11s5.7-4.3,9.8-4.3c4.2,0,7.4,1.4,9.9,4.3c2.4,2.9,3.6,6.5,3.6,11v0.6
		c0,4.5-1.2,8.2-3.6,11c-2.4,2.9-5.7,4.3-9.8,4.3c-4.2,0-7.5-1.4-9.9-4.3c-2.4-2.9-3.6-6.5-3.6-11V42z M197.1,42.6
		c0,3.2,0.7,5.8,2,7.9c1.3,2.1,3.3,3.1,6,3.1c2.6,0,4.6-1,5.9-3.1c1.4-2.1,2-4.7,2-7.9V42c0-3.2-0.7-5.8-2-7.9
		c-1.4-2.1-3.3-3.1-6-3.1c-2.6,0-4.6,1-6,3.1s-2,4.7-2,7.9v0.6H197.1z"/>
	<path class="st0" d="M243.9,53.8c-1,1.4-2.2,2.4-3.6,3.1c-1.4,0.7-3.1,1.1-4.9,1.1c-3.7,0-6.5-1.3-8.6-4s-3.1-6.2-3.1-10.5v-0.6
		c0-4.8,1-8.7,3.1-11.7s5-4.5,8.7-4.5c1.8,0,3.4,0.3,4.7,1c1.4,0.7,2.5,1.6,3.5,2.9V18.3l-4.5-0.8V14h4.5h5.5v39.1l4.5,0.8v3.5h-9.3
		L243.9,53.8z M229.1,43.4c0,3,0.6,5.5,1.9,7.3c1.2,1.8,3.2,2.8,5.8,2.8c1.6,0,3-0.4,4.1-1.1c1.1-0.7,2-1.8,2.8-3.1v-14
		c-0.7-1.3-1.6-2.3-2.8-3c-1.1-0.7-2.5-1.1-4.1-1.1c-2.6,0-4.5,1.1-5.8,3.3s-1.9,5-1.9,8.5V43.4z"/>
	<path class="st0" d="M257.8,42c0-4.4,1.2-8.1,3.6-11s5.7-4.3,9.8-4.3c4.2,0,7.4,1.4,9.9,4.3c2.4,2.9,3.6,6.5,3.6,11v0.6
		c0,4.5-1.2,8.2-3.6,11c-2.4,2.9-5.7,4.3-9.8,4.3c-4.2,0-7.5-1.4-9.9-4.3s-3.6-6.5-3.6-11V42z M263.3,42.6c0,3.2,0.7,5.8,2,7.9
		c1.3,2.1,3.3,3.1,6,3.1c2.6,0,4.6-1,5.9-3.1c1.4-2.1,2-4.7,2-7.9V42c0-3.2-0.7-5.8-2-7.9s-3.3-3.1-6-3.1s-4.6,1-6,3.1s-2,4.7-2,7.9
		v0.6H263.3z"/>
	<path class="st0" d="M289.7,30.8v-3.5h9.4l0.5,4.4c0.9-1.5,1.9-2.7,3.2-3.6c1.3-0.9,2.7-1.3,4.3-1.3c0.4,0,0.9,0,1.3,0.1
		s0.8,0.1,1,0.2l-0.7,5.1l-3.1-0.2c-1.4,0-2.7,0.3-3.6,1c-1,0.7-1.7,1.6-2.3,2.9v17.3l4.5,0.8v3.5h-14.5V54l4.5-0.8V31.6L289.7,30.8
		z"/>
	<path class="st0" d="M326.5,57.9c-4.2,0-7.5-1.4-10-4.2s-3.7-6.4-3.7-10.9v-1.2c0-4.3,1.3-7.8,3.8-10.7c2.5-2.8,5.6-4.3,9.1-4.3
		c4,0,7.1,1.2,9.2,3.7c2.1,2.4,3.1,5.7,3.1,9.8v3.4h-19.5l-0.1,0.1c0.1,2.9,0.8,5.3,2.2,7.1s3.4,2.8,5.9,2.8c1.9,0,3.5-0.3,4.9-0.8
		s2.6-1.3,3.6-2.2l2.1,3.6c-1.1,1-2.5,1.9-4.3,2.6C331.1,57.6,329,57.9,326.5,57.9z M325.7,31c-1.8,0-3.4,0.8-4.7,2.3
		c-1.3,1.5-2.1,3.5-2.4,5.8l0.1,0.1h13.9v-0.7c0-2.2-0.6-3.9-1.7-5.4C329.6,31.7,327.9,31,325.7,31z"/>
	<path class="st0" d="M375.6,16.9c4.3,0,7.7,1.1,10.1,3.3s3.6,5.2,3.6,8.8c0,3.7-1.2,6.6-3.6,8.8s-5.8,3.3-10.1,3.3H367v12l4.5,0.8
		v3.5H357v-3.5l4.5-0.8V21.2l-4.5-0.8v-3.5h4.5C361.5,16.9,375.6,16.9,375.6,16.9z M367,36.8h8.6c2.7,0,4.8-0.7,6.2-2.2
		c1.4-1.5,2-3.3,2-5.6c0-2.2-0.7-4.1-2-5.6c-1.4-1.5-3.4-2.3-6.2-2.3H367V36.8z"/>
	<path class="st0" d="M393.2,57.3v-3.5l4.5-0.8V21.2l-4.5-0.8v-3.5h31.1v9.7h-4.7l-0.4-5.4h-15.9v13.1h15.5v4.3h-15.5v14.5h16.3
		l0.4-5.4h4.7v9.7h-31.5V57.3z"/>
	<path class="st0" d="M462.8,16.9v9h-4.7l-0.4-4.6h-9v31.9l4.5,0.8v3.5h-14.5V54l4.5-0.8v-32h-9l-0.4,4.6h-4.7v-9L462.8,16.9
		L462.8,16.9z"/>
	<path class="st0" d="M519.5,24.9L519.5,24.9l-13.2,32.5h-3.6L489.6,25h-0.1l0.6,16.4v11.7l4.5,0.8v3.5h-14.5v-3.5l4.5-0.8V21.2
		l-4.5-0.8v-3.5h4.5h7l12.9,32.9h0.2l12.9-32.9H529v3.5l-4.5,0.8v31.9l4.5,0.8v3.5h-14.5v-3.5l4.5-0.8V41.3L519.5,24.9z"/>
	<path class="st0" d="M533.4,53.8l4.5-0.8V31.6l-4.5-0.8v-3.5h10v25.8l4.5,0.8v3.5h-14.5V53.8z M543.4,19.5H538V14h5.5L543.4,19.5
		L543.4,19.5z"/>
	<path class="st0" d="M551.3,53.8l4.5-0.8V31.6l-4.5-0.8v-3.5h9.4l0.4,4.5c1-1.6,2.3-2.8,3.8-3.7c1.5-0.9,3.2-1.3,5.2-1.3
		c3.2,0,5.8,1,7.5,2.9c1.8,1.9,2.7,4.8,2.7,8.8v14.7l4.5,0.8v3.5h-14.5V54l4.5-0.8V38.5c0-2.7-0.5-4.5-1.6-5.6
		c-1-1.1-2.6-1.7-4.8-1.7c-1.6,0-3,0.4-4.2,1.1c-1.2,0.8-2.2,1.8-2.9,3.1v17.7l4.5,0.8v3.5h-14.5L551.3,53.8L551.3,53.8z"/>
	<path class="st0" d="M588.8,53.8l4.5-0.8V31.6l-4.5-0.8v-3.5h10v25.8l4.5,0.8v3.5h-14.5V53.8z M598.8,19.5h-5.5V14h5.5V19.5z"/>
</g>
</svg>
