<svg xmlns="http://www.w3.org/2000/svg" viewBox="0 0 497.88 144.11"><defs><style>.a,.b,.e,.f,.g{fill:none;stroke-miterlimit:10;}.a,.g{stroke:#a7a9ac;}.a,.b,.f,.g{stroke-width:3px;}.b,.f{stroke:#ba1d84;}.c{fill:#231f20;}.d{fill:#fff;}.e{stroke:#fff;stroke-width:4px;}.f,.g{stroke-linecap:round;}</style></defs><title>IDC cable mirrored</title><line class="a" x1="32.5" y1="135" x2="465.38" y2="135"/><line class="a" x1="32.5" y1="130" x2="465.38" y2="130"/><line class="a" x1="32.5" y1="125" x2="465.38" y2="125"/><line class="a" x1="32.5" y1="120" x2="465.38" y2="120"/><line class="a" x1="32.5" y1="115" x2="465.38" y2="115"/><line class="a" x1="32.5" y1="110" x2="465.38" y2="110"/><line class="a" x1="32.5" y1="105" x2="465.38" y2="105"/><line class="a" x1="32.5" y1="100" x2="465.38" y2="100"/><line class="a" x1="32.5" y1="95" x2="465.38" y2="95"/><line class="a" x1="32.5" y1="90" x2="465.38" y2="90"/><line class="a" x1="32.5" y1="85" x2="465.38" y2="85"/><line class="a" x1="32.5" y1="80" x2="465.38" y2="80"/><line class="a" x1="32.5" y1="75" x2="465.38" y2="75"/><line class="a" x1="32.5" y1="70" x2="465.38" y2="70"/><line class="a" x1="32.5" y1="65" x2="465.38" y2="65"/><line class="a" x1="32.5" y1="60" x2="465.38" y2="60"/><line class="a" x1="32.5" y1="55" x2="465.38" y2="55"/><line class="a" x1="32.5" y1="50" x2="465.38" y2="50"/><line class="a" x1="32.5" y1="45" x2="465.38" y2="45"/><line class="a" x1="32.5" y1="40" x2="465.38" y2="40"/><line class="a" x1="32.5" y1="35" x2="465.38" y2="35"/><line class="a" x1="32.5" y1="30" x2="465.38" y2="30"/><line class="a" x1="32.5" y1="25" x2="465.38" y2="25"/><line class="a" x1="32.5" y1="20" x2="465.38" y2="20"/><line class="a" x1="32.5" y1="15" x2="465.38" y2="15"/><line class="b" x1="32.5" y1="10" x2="465.38" y2="10"/><rect class="c" x="4.5" width="28" height="142.5"/><rect class="d" x="19.84" y="6.75" width="4.2" height="4.2"/><rect class="d" x="19.84" y="16.83" width="4.2" height="4.2"/><rect class="d" x="19.84" y="11.79" width="4.2" height="4.2"/><rect class="d" x="19.84" y="21.87" width="4.2" height="4.2"/><rect class="d" x="19.84" y="31.95" width="4.2" height="4.2"/><rect class="d" x="19.84" y="26.91" width="4.2" height="4.2"/><rect class="d" x="19.84" y="36.99" width="4.2" height="4.2"/><rect class="d" x="19.84" y="47.08" width="4.2" height="4.2"/><rect class="d" x="19.84" y="42.04" width="4.2" height="4.2"/><rect class="d" x="19.84" y="52.12" width="4.2" height="4.2"/><rect class="d" x="19.84" y="62.2" width="4.2" height="4.2"/><rect class="d" x="19.84" y="57.16" width="4.2" height="4.2"/><rect class="d" x="19.84" y="67.24" width="4.2" height="4.2"/><rect class="d" x="19.84" y="77.32" width="4.2" height="4.2"/><rect class="d" x="19.84" y="72.28" width="4.2" height="4.2"/><rect class="d" x="19.84" y="82.36" width="4.2" height="4.2"/><rect class="d" x="19.84" y="92.44" width="4.2" height="4.2"/><rect class="d" x="19.84" y="87.4" width="4.2" height="4.2"/><rect class="d" x="19.84" y="97.48" width="4.2" height="4.2"/><rect class="d" x="19.84" y="107.57" width="4.2" height="4.2"/><rect class="d" x="19.84" y="102.52" width="4.2" height="4.2"/><rect class="d" x="19.84" y="112.61" width="4.2" height="4.2"/><rect class="d" x="19.84" y="122.69" width="4.2" height="4.2"/><rect class="d" x="19.84" y="117.65" width="4.2" height="4.2"/><rect class="d" x="19.84" y="133.05" width="4.2" height="4.2"/><rect class="d" x="19.84" y="128.01" width="4.2" height="4.2"/><rect class="d" x="12.84" y="6.75" width="4.2" height="4.2"/><rect class="d" x="12.84" y="16.83" width="4.2" height="4.2"/><rect class="d" x="12.84" y="11.79" width="4.2" height="4.2"/><rect class="d" x="12.84" y="21.87" width="4.2" height="4.2"/><rect class="d" x="12.84" y="31.95" width="4.2" height="4.2"/><rect class="d" x="12.84" y="26.91" width="4.2" height="4.2"/><rect class="d" x="12.84" y="36.99" width="4.2" height="4.2"/><rect class="d" x="12.84" y="47.08" width="4.2" height="4.2"/><rect class="d" x="12.84" y="42.04" width="4.2" height="4.2"/><rect class="d" x="12.84" y="52.12" width="4.2" height="4.2"/><rect class="d" x="12.84" y="62.2" width="4.2" height="4.2"/><rect class="d" x="12.84" y="57.16" width="4.2" height="4.2"/><rect class="d" x="12.84" y="67.24" width="4.2" height="4.2"/><rect class="d" x="12.84" y="77.32" width="4.2" height="4.2"/><rect class="d" x="12.84" y="72.28" width="4.2" height="4.2"/><rect class="d" x="12.84" y="82.36" width="4.2" height="4.2"/><rect class="d" x="12.84" y="92.44" width="4.2" height="4.2"/><rect class="d" x="12.84" y="87.4" width="4.2" height="4.2"/><rect class="d" x="12.84" y="97.48" width="4.2" height="4.2"/><rect class="d" x="12.84" y="107.57" width="4.2" height="4.2"/><rect class="d" x="12.84" y="102.52" width="4.2" height="4.2"/><rect class="d" x="12.84" y="112.61" width="4.2" height="4.2"/><rect class="d" x="12.84" y="122.69" width="4.2" height="4.2"/><rect class="d" x="12.84" y="117.65" width="4.2" height="4.2"/><rect class="d" x="12.84" y="133.05" width="4.2" height="4.2"/><rect class="d" x="12.84" y="128.01" width="4.2" height="4.2"/><rect class="c" y="60.75" width="4.5" height="20"/><rect class="c" x="470.88" y="13.61" width="28" height="142.5" transform="translate(964.25 157.71) rotate(180)"/><rect class="d" x="479.34" y="145.16" width="4.2" height="4.2" transform="translate(957.37 282.51) rotate(180)"/><rect class="d" x="479.34" y="135.07" width="4.2" height="4.2" transform="translate(957.37 262.35) rotate(180)"/><rect class="d" x="479.34" y="140.11" width="4.2" height="4.2" transform="translate(957.37 272.43) rotate(180)"/><rect class="d" x="479.34" y="130.03" width="4.2" height="4.2" transform="translate(957.37 252.27) rotate(180)"/><rect class="d" x="479.34" y="119.95" width="4.2" height="4.2" transform="translate(957.37 232.1) rotate(180)"/><rect class="d" x="479.34" y="124.99" width="4.2" height="4.2" transform="translate(957.37 242.19) rotate(180)"/><rect class="d" x="479.34" y="114.91" width="4.2" height="4.2" transform="translate(957.37 222.02) rotate(180)"/><rect class="d" x="479.34" y="104.83" width="4.2" height="4.2" transform="translate(957.37 201.86) rotate(180)"/><rect class="d" x="479.34" y="109.87" width="4.2" height="4.2" transform="translate(957.37 211.94) rotate(180)"/><rect class="d" x="479.34" y="99.79" width="4.2" height="4.2" transform="translate(957.37 191.78) rotate(180)"/><rect class="d" x="479.34" y="89.71" width="4.2" height="4.2" transform="translate(957.37 171.61) rotate(180)"/><rect class="d" x="479.34" y="94.75" width="4.2" height="4.2" transform="translate(957.37 181.7) rotate(180)"/><rect class="d" x="479.34" y="84.67" width="4.2" height="4.2" transform="translate(957.37 161.53) rotate(180)"/><rect class="d" x="479.34" y="74.58" width="4.2" height="4.2" transform="translate(957.37 141.37) rotate(180)"/><rect class="d" x="479.34" y="79.63" width="4.2" height="4.2" transform="translate(957.37 151.45) rotate(180)"/><rect class="d" x="479.34" y="69.54" width="4.2" height="4.2" transform="translate(957.37 131.29) rotate(180)"/><rect class="d" x="479.34" y="59.46" width="4.2" height="4.2" transform="translate(957.37 111.13) rotate(180)"/><rect class="d" x="479.34" y="64.5" width="4.2" height="4.2" transform="translate(957.37 121.21) rotate(180)"/><rect class="d" x="479.34" y="54.42" width="4.2" height="4.2" transform="translate(957.37 101.04) rotate(180)"/><rect class="d" x="479.34" y="44.34" width="4.2" height="4.2" transform="translate(957.37 80.88) rotate(180)"/><rect class="d" x="479.34" y="49.38" width="4.2" height="4.2" transform="translate(957.37 90.96) rotate(180)"/><rect class="d" x="479.34" y="39.3" width="4.2" height="4.2" transform="translate(957.37 70.8) rotate(180)"/><rect class="d" x="479.34" y="29.22" width="4.2" height="4.2" transform="translate(957.37 50.64) rotate(180)"/><rect class="d" x="479.34" y="34.26" width="4.2" height="4.2" transform="translate(957.37 60.72) rotate(180)"/><rect class="d" x="479.34" y="18.86" width="4.2" height="4.2" transform="translate(957.37 29.91) rotate(180)"/><rect class="d" x="479.34" y="23.9" width="4.2" height="4.2" transform="translate(957.37 39.99) rotate(180)"/><rect class="d" x="486.34" y="145.16" width="4.2" height="4.2" transform="translate(971.37 282.51) rotate(180)"/><rect class="d" x="486.34" y="135.07" width="4.2" height="4.2" transform="translate(971.37 262.35) rotate(180)"/><rect class="d" x="486.34" y="140.11" width="4.2" height="4.2" transform="translate(971.37 272.43) rotate(180)"/><rect class="d" x="486.34" y="130.03" width="4.2" height="4.2" transform="translate(971.37 252.27) rotate(180)"/><rect class="d" x="486.34" y="119.95" width="4.2" height="4.2" transform="translate(971.37 232.1) rotate(180)"/><rect class="d" x="486.34" y="124.99" width="4.2" height="4.2" transform="translate(971.37 242.19) rotate(180)"/><rect class="d" x="486.34" y="114.91" width="4.2" height="4.2" transform="translate(971.37 222.02) rotate(180)"/><rect class="d" x="486.34" y="104.83" width="4.2" height="4.2" transform="translate(971.37 201.86) rotate(180)"/><rect class="d" x="486.34" y="109.87" width="4.2" height="4.2" transform="translate(971.37 211.94) rotate(180)"/><rect class="d" x="486.34" y="99.79" width="4.2" height="4.2" transform="translate(971.37 191.78) rotate(180)"/><rect class="d" x="486.34" y="89.71" width="4.2" height="4.2" transform="translate(971.37 171.61) rotate(180)"/><rect class="d" x="486.34" y="94.75" width="4.2" height="4.2" transform="translate(971.37 181.7) rotate(180)"/><rect class="d" x="486.34" y="84.67" width="4.2" height="4.2" transform="translate(971.37 161.53) rotate(180)"/><rect class="d" x="486.34" y="74.58" width="4.2" height="4.2" transform="translate(971.37 141.37) rotate(180)"/><rect class="d" x="486.34" y="79.63" width="4.2" height="4.2" transform="translate(971.37 151.45) rotate(180)"/><rect class="d" x="486.34" y="69.54" width="4.2" height="4.2" transform="translate(971.37 131.29) rotate(180)"/><rect class="d" x="486.34" y="59.46" width="4.2" height="4.2" transform="translate(971.37 111.13) rotate(180)"/><rect class="d" x="486.34" y="64.5" width="4.2" height="4.2" transform="translate(971.37 121.21) rotate(180)"/><rect class="d" x="486.34" y="54.42" width="4.2" height="4.2" transform="translate(971.37 101.04) rotate(180)"/><rect class="d" x="486.34" y="44.34" width="4.2" height="4.2" transform="translate(971.37 80.88) rotate(180)"/><rect class="d" x="486.34" y="49.38" width="4.2" height="4.2" transform="translate(971.37 90.96) rotate(180)"/><rect class="d" x="486.34" y="39.3" width="4.2" height="4.2" transform="translate(971.37 70.8) rotate(180)"/><rect class="d" x="486.34" y="29.22" width="4.2" height="4.2" transform="translate(971.37 50.64) rotate(180)"/><rect class="d" x="486.34" y="34.26" width="4.2" height="4.2" transform="translate(971.37 60.72) rotate(180)"/><rect class="d" x="486.34" y="18.86" width="4.2" height="4.2" transform="translate(971.37 29.91) rotate(180)"/><rect class="d" x="486.34" y="23.9" width="4.2" height="4.2" transform="translate(971.37 39.99) rotate(180)"/><rect class="c" x="498.88" y="75.36" width="4.5" height="20" transform="translate(996.75 158.71) rotate(180)"/><line class="e" x1="225.5" y1="10" x2="269.5" y2="10"/><line class="e" x1="225.5" y1="15" x2="269.5" y2="15"/><line class="f" x1="225.5" y1="10" x2="269.5" y2="15"/><line class="g" x1="225.5" y1="15" x2="269.5" y2="10"/><line class="e" x1="225.5" y1="20" x2="269.5" y2="20"/><line class="e" x1="225.5" y1="25" x2="269.5" y2="25"/><line class="g" x1="225.5" y1="20" x2="269.5" y2="25"/><line class="g" x1="225.5" y1="25" x2="269.5" y2="20"/><line class="e" x1="225.5" y1="30" x2="269.5" y2="30"/><line class="e" x1="225.5" y1="35" x2="269.5" y2="35"/><line class="g" x1="225.5" y1="30" x2="269.5" y2="35"/><line class="g" x1="225.5" y1="35" x2="269.5" y2="30"/><line class="e" x1="225.5" y1="40" x2="269.5" y2="40"/><line class="e" x1="225.5" y1="45" x2="269.5" y2="45"/><line class="g" x1="225.5" y1="40" x2="269.5" y2="45"/><line class="g" x1="225.5" y1="45" x2="269.5" y2="40"/><line class="e" x1="225.5" y1="50" x2="269.5" y2="50"/><line class="e" x1="225.5" y1="55" x2="269.5" y2="55"/><line class="g" x1="225.5" y1="50" x2="269.5" y2="55"/><line class="g" x1="225.5" y1="55" x2="269.5" y2="50"/><line class="e" x1="225.5" y1="60" x2="269.5" y2="60"/><line class="e" x1="225.5" y1="65" x2="269.5" y2="65"/><line class="g" x1="225.5" y1="60" x2="269.5" y2="65"/><line class="g" x1="225.5" y1="65" x2="269.5" y2="60"/><line class="e" x1="225.5" y1="70" x2="269.5" y2="70"/><line class="e" x1="225.5" y1="75" x2="269.5" y2="75"/><line class="g" x1="225.5" y1="70" x2="269.5" y2="75"/><line class="g" x1="225.5" y1="75" x2="269.5" y2="70"/><line class="e" x1="225.5" y1="80" x2="269.5" y2="80"/><line class="e" x1="225.5" y1="85" x2="269.5" y2="85"/><line class="g" x1="225.5" y1="80" x2="269.5" y2="85"/><line class="g" x1="225.5" y1="85" x2="269.5" y2="80"/><line class="e" x1="225.5" y1="90" x2="269.5" y2="90"/><line class="e" x1="225.5" y1="95" x2="269.5" y2="95"/><line class="g" x1="225.5" y1="90" x2="269.5" y2="95"/><line class="g" x1="225.5" y1="95" x2="269.5" y2="90"/><line class="e" x1="225.5" y1="100" x2="269.5" y2="100"/><line class="e" x1="225.5" y1="105" x2="269.5" y2="105"/><line class="g" x1="225.5" y1="100" x2="269.5" y2="105"/><line class="g" x1="225.5" y1="105" x2="269.5" y2="100"/><line class="e" x1="225.5" y1="110" x2="269.5" y2="110"/><line class="e" x1="225.5" y1="115" x2="269.5" y2="115"/><line class="g" x1="225.5" y1="110" x2="269.5" y2="115"/><line class="g" x1="225.5" y1="115" x2="269.5" y2="110"/><line class="e" x1="225.5" y1="120" x2="269.5" y2="120"/><line class="e" x1="225.5" y1="125" x2="269.5" y2="125"/><line class="g" x1="225.5" y1="120" x2="269.5" y2="125"/><line class="g" x1="225.5" y1="125" x2="269.5" y2="120"/><line class="e" x1="225.5" y1="130" x2="269.5" y2="130"/><line class="e" x1="225.5" y1="135" x2="269.5" y2="135"/><line class="g" x1="225.5" y1="130" x2="269.5" y2="135"/><line class="g" x1="225.5" y1="135" x2="269.5" y2="130"/></svg>