<svg xmlns="http://www.w3.org/2000/svg" viewBox="0 0 649.21 143"><defs><style>.a,.b,.d,.e,.f{fill:none;stroke-miterlimit:10;}.a,.f{stroke:#a7a9ac;}.a,.b,.e,.f{stroke-width:3px;}.b,.e{stroke:#ba1d84;}.c{fill:#231f20;}.d{stroke:#fff;stroke-width:4px;}.e,.f{stroke-linecap:round;}</style></defs><title>IDC cable mirrored back</title><line class="a" x1="32.5" y1="10" x2="616.71" y2="10"/><line class="a" x1="32.5" y1="15" x2="616.71" y2="15"/><line class="a" x1="32.5" y1="20" x2="616.71" y2="20"/><line class="a" x1="32.5" y1="25" x2="616.71" y2="25"/><line class="a" x1="32.5" y1="30" x2="616.71" y2="30"/><line class="a" x1="32.5" y1="35" x2="616.71" y2="35"/><line class="a" x1="32.5" y1="40" x2="616.71" y2="40"/><line class="a" x1="32.5" y1="45" x2="616.71" y2="45"/><line class="a" x1="32.5" y1="50" x2="616.71" y2="50"/><line class="a" x1="32.5" y1="55" x2="616.71" y2="55"/><line class="a" x1="32.5" y1="60" x2="616.71" y2="60"/><line class="a" x1="32.5" y1="65" x2="616.71" y2="65"/><line class="a" x1="32.5" y1="70" x2="616.71" y2="70"/><line class="a" x1="32.5" y1="75" x2="616.71" y2="75"/><line class="a" x1="32.5" y1="80" x2="616.71" y2="80"/><line class="a" x1="32.5" y1="85" x2="616.71" y2="85"/><line class="a" x1="32.5" y1="90" x2="616.71" y2="90"/><line class="a" x1="32.5" y1="95" x2="616.71" y2="95"/><line class="a" x1="32.5" y1="100" x2="616.71" y2="100"/><line class="a" x1="32.5" y1="105" x2="616.71" y2="105"/><line class="a" x1="32.5" y1="110" x2="616.71" y2="110"/><line class="a" x1="32.5" y1="115" x2="616.71" y2="115"/><line class="a" x1="32.5" y1="120" x2="616.71" y2="120"/><line class="a" x1="32.5" y1="125" x2="616.71" y2="125"/><line class="a" x1="32.5" y1="130" x2="616.71" y2="130"/><line class="b" x1="32.5" y1="135" x2="616.71" y2="135"/><rect class="c" x="4.5" width="28" height="142.5"/><rect class="c" y="60.75" width="4.5" height="20"/><line class="d" x1="304.17" y1="135" x2="348.17" y2="135"/><line class="d" x1="304.17" y1="130" x2="348.17" y2="130"/><line class="e" x1="304.17" y1="135" x2="348.17" y2="130"/><line class="f" x1="304.17" y1="130" x2="348.17" y2="135"/><line class="d" x1="304.17" y1="125" x2="348.17" y2="125"/><line class="d" x1="304.17" y1="120" x2="348.17" y2="120"/><line class="f" x1="304.17" y1="125" x2="348.17" y2="120"/><line class="f" x1="304.17" y1="120" x2="348.17" y2="125"/><line class="d" x1="304.17" y1="115" x2="348.17" y2="115"/><line class="d" x1="304.17" y1="110" x2="348.17" y2="110"/><line class="f" x1="304.17" y1="115" x2="348.17" y2="110"/><line class="f" x1="304.17" y1="110" x2="348.17" y2="115"/><line class="d" x1="304.17" y1="105" x2="348.17" y2="105"/><line class="d" x1="304.17" y1="100" x2="348.17" y2="100"/><line class="f" x1="304.17" y1="105" x2="348.17" y2="100"/><line class="f" x1="304.17" y1="100" x2="348.17" y2="105"/><line class="d" x1="304.17" y1="95" x2="348.17" y2="95"/><line class="d" x1="304.17" y1="90" x2="348.17" y2="90"/><line class="f" x1="304.17" y1="95" x2="348.17" y2="90"/><line class="f" x1="304.17" y1="90" x2="348.17" y2="95"/><line class="d" x1="304.17" y1="85" x2="348.17" y2="85"/><line class="d" x1="304.17" y1="80" x2="348.17" y2="80"/><line class="f" x1="304.17" y1="85" x2="348.17" y2="80"/><line class="f" x1="304.17" y1="80" x2="348.17" y2="85"/><line class="d" x1="304.17" y1="75" x2="348.17" y2="75"/><line class="d" x1="304.17" y1="70" x2="348.17" y2="70"/><line class="f" x1="304.17" y1="75" x2="348.17" y2="70"/><line class="f" x1="304.17" y1="70" x2="348.17" y2="75"/><line class="d" x1="304.17" y1="65" x2="348.17" y2="65"/><line class="d" x1="304.17" y1="60" x2="348.17" y2="60"/><line class="f" x1="304.17" y1="65" x2="348.17" y2="60"/><line class="f" x1="304.17" y1="60" x2="348.17" y2="65"/><line class="d" x1="304.17" y1="55" x2="348.17" y2="55"/><line class="d" x1="304.17" y1="50" x2="348.17" y2="50"/><line class="f" x1="304.17" y1="55" x2="348.17" y2="50"/><line class="f" x1="304.17" y1="50" x2="348.17" y2="55"/><line class="d" x1="304.17" y1="45" x2="348.17" y2="45"/><line class="d" x1="304.17" y1="40" x2="348.17" y2="40"/><line class="f" x1="304.17" y1="45" x2="348.17" y2="40"/><line class="f" x1="304.17" y1="40" x2="348.17" y2="45"/><line class="d" x1="304.17" y1="35" x2="348.17" y2="35"/><line class="d" x1="304.17" y1="30" x2="348.17" y2="30"/><line class="f" x1="304.17" y1="35" x2="348.17" y2="30"/><line class="f" x1="304.17" y1="30" x2="348.17" y2="35"/><line class="d" x1="304.17" y1="25" x2="348.17" y2="25"/><line class="d" x1="304.17" y1="20" x2="348.17" y2="20"/><line class="f" x1="304.17" y1="25" x2="348.17" y2="20"/><line class="f" x1="304.17" y1="20" x2="348.17" y2="25"/><line class="d" x1="304.17" y1="15" x2="348.17" y2="15"/><line class="d" x1="304.17" y1="10" x2="348.17" y2="10"/><line class="f" x1="304.17" y1="15" x2="348.17" y2="10"/><line class="f" x1="304.17" y1="10" x2="348.17" y2="15"/><rect class="c" x="622.02" y="12.5" width="28" height="142.5" transform="translate(1266.73 155.5) rotate(180)"/><rect class="c" x="650.02" y="74.25" width="4.5" height="20" transform="translate(1299.23 156.5) rotate(180)"/></svg>