<svg xmlns="http://www.w3.org/2000/svg" viewBox="0 0 497.88 143.69"><defs><style>.a,.b{fill:none;stroke-miterlimit:10;stroke-width:3px;}.a{stroke:#a7a9ac;}.b{stroke:#ba1d84;}.c{fill:#231f20;}.d{fill:#fff;}</style></defs><title>IDC cable stock</title><line class="a" x1="32.5" y1="135" x2="465.38" y2="135"/><line class="a" x1="32.5" y1="130" x2="465.38" y2="130"/><line class="a" x1="32.5" y1="125" x2="465.38" y2="125"/><line class="a" x1="32.5" y1="120" x2="465.38" y2="120"/><line class="a" x1="32.5" y1="115" x2="465.38" y2="115"/><line class="a" x1="32.5" y1="110" x2="465.38" y2="110"/><line class="a" x1="32.5" y1="105" x2="465.38" y2="105"/><line class="a" x1="32.5" y1="100" x2="465.38" y2="100"/><line class="a" x1="32.5" y1="95" x2="465.38" y2="95"/><line class="a" x1="32.5" y1="90" x2="465.38" y2="90"/><line class="a" x1="32.5" y1="85" x2="465.38" y2="85"/><line class="a" x1="32.5" y1="80" x2="465.38" y2="80"/><line class="a" x1="32.5" y1="75" x2="465.38" y2="75"/><line class="a" x1="32.5" y1="70" x2="465.38" y2="70"/><line class="a" x1="32.5" y1="65" x2="465.38" y2="65"/><line class="a" x1="32.5" y1="60" x2="465.38" y2="60"/><line class="a" x1="32.5" y1="55" x2="465.38" y2="55"/><line class="a" x1="32.5" y1="50" x2="465.38" y2="50"/><line class="a" x1="32.5" y1="45" x2="465.38" y2="45"/><line class="a" x1="32.5" y1="40" x2="465.38" y2="40"/><line class="a" x1="32.5" y1="35" x2="465.38" y2="35"/><line class="a" x1="32.5" y1="30" x2="465.38" y2="30"/><line class="a" x1="32.5" y1="25" x2="465.38" y2="25"/><line class="a" x1="32.5" y1="20" x2="465.38" y2="20"/><line class="a" x1="32.5" y1="15" x2="465.38" y2="15"/><line class="b" x1="32.5" y1="10" x2="465.38" y2="10"/><rect class="c" x="4.5" width="28" height="142.5"/><rect class="d" x="19.84" y="6.75" width="4.2" height="4.2"/><rect class="d" x="19.84" y="16.83" width="4.2" height="4.2"/><rect class="d" x="19.84" y="11.79" width="4.2" height="4.2"/><rect class="d" x="19.84" y="21.87" width="4.2" height="4.2"/><rect class="d" x="19.84" y="31.95" width="4.2" height="4.2"/><rect class="d" x="19.84" y="26.91" width="4.2" height="4.2"/><rect class="d" x="19.84" y="36.99" width="4.2" height="4.2"/><rect class="d" x="19.84" y="47.08" width="4.2" height="4.2"/><rect class="d" x="19.84" y="42.04" width="4.2" height="4.2"/><rect class="d" x="19.84" y="52.12" width="4.2" height="4.2"/><rect class="d" x="19.84" y="62.2" width="4.2" height="4.2"/><rect class="d" x="19.84" y="57.16" width="4.2" height="4.2"/><rect class="d" x="19.84" y="67.24" width="4.2" height="4.2"/><rect class="d" x="19.84" y="77.32" width="4.2" height="4.2"/><rect class="d" x="19.84" y="72.28" width="4.2" height="4.2"/><rect class="d" x="19.84" y="82.36" width="4.2" height="4.2"/><rect class="d" x="19.84" y="92.44" width="4.2" height="4.2"/><rect class="d" x="19.84" y="87.4" width="4.2" height="4.2"/><rect class="d" x="19.84" y="97.48" width="4.2" height="4.2"/><rect class="d" x="19.84" y="107.57" width="4.2" height="4.2"/><rect class="d" x="19.84" y="102.52" width="4.2" height="4.2"/><rect class="d" x="19.84" y="112.61" width="4.2" height="4.2"/><rect class="d" x="19.84" y="122.69" width="4.2" height="4.2"/><rect class="d" x="19.84" y="117.65" width="4.2" height="4.2"/><rect class="d" x="19.84" y="133.05" width="4.2" height="4.2"/><rect class="d" x="19.84" y="128.01" width="4.2" height="4.2"/><rect class="d" x="12.84" y="6.75" width="4.2" height="4.2"/><rect class="d" x="12.84" y="16.83" width="4.2" height="4.2"/><rect class="d" x="12.84" y="11.79" width="4.2" height="4.2"/><rect class="d" x="12.84" y="21.87" width="4.2" height="4.2"/><rect class="d" x="12.84" y="31.95" width="4.2" height="4.2"/><rect class="d" x="12.84" y="26.91" width="4.2" height="4.2"/><rect class="d" x="12.84" y="36.99" width="4.2" height="4.2"/><rect class="d" x="12.84" y="47.08" width="4.2" height="4.2"/><rect class="d" x="12.84" y="42.04" width="4.2" height="4.2"/><rect class="d" x="12.84" y="52.12" width="4.2" height="4.2"/><rect class="d" x="12.84" y="62.2" width="4.2" height="4.2"/><rect class="d" x="12.84" y="57.16" width="4.2" height="4.2"/><rect class="d" x="12.84" y="67.24" width="4.2" height="4.2"/><rect class="d" x="12.84" y="77.32" width="4.2" height="4.2"/><rect class="d" x="12.84" y="72.28" width="4.2" height="4.2"/><rect class="d" x="12.84" y="82.36" width="4.2" height="4.2"/><rect class="d" x="12.84" y="92.44" width="4.2" height="4.2"/><rect class="d" x="12.84" y="87.4" width="4.2" height="4.2"/><rect class="d" x="12.84" y="97.48" width="4.2" height="4.2"/><rect class="d" x="12.84" y="107.57" width="4.2" height="4.2"/><rect class="d" x="12.84" y="102.52" width="4.2" height="4.2"/><rect class="d" x="12.84" y="112.61" width="4.2" height="4.2"/><rect class="d" x="12.84" y="122.69" width="4.2" height="4.2"/><rect class="d" x="12.84" y="117.65" width="4.2" height="4.2"/><rect class="d" x="12.84" y="133.05" width="4.2" height="4.2"/><rect class="d" x="12.84" y="128.01" width="4.2" height="4.2"/><rect class="c" y="60.75" width="4.5" height="20"/><rect class="c" x="470.88" y="13.19" width="28" height="142.5" transform="translate(964.25 156.88) rotate(180)"/><rect class="d" x="479.34" y="144.74" width="4.2" height="4.2" transform="translate(957.37 281.68) rotate(180)"/><rect class="d" x="479.34" y="134.66" width="4.2" height="4.2" transform="translate(957.37 261.52) rotate(180)"/><rect class="d" x="479.34" y="139.7" width="4.2" height="4.2" transform="translate(957.37 271.6) rotate(180)"/><rect class="d" x="479.34" y="129.62" width="4.2" height="4.2" transform="translate(957.37 251.43) rotate(180)"/><rect class="d" x="479.34" y="119.54" width="4.2" height="4.2" transform="translate(957.37 231.27) rotate(180)"/><rect class="d" x="479.34" y="124.58" width="4.2" height="4.2" transform="translate(957.37 241.35) rotate(180)"/><rect class="d" x="479.34" y="114.49" width="4.2" height="4.2" transform="translate(957.37 221.19) rotate(180)"/><rect class="d" x="479.34" y="104.41" width="4.2" height="4.2" transform="translate(957.37 201.03) rotate(180)"/><rect class="d" x="479.34" y="109.45" width="4.2" height="4.2" transform="translate(957.37 211.11) rotate(180)"/><rect class="d" x="479.34" y="99.37" width="4.2" height="4.2" transform="translate(957.37 190.95) rotate(180)"/><rect class="d" x="479.34" y="89.29" width="4.2" height="4.2" transform="translate(957.37 170.78) rotate(180)"/><rect class="d" x="479.34" y="94.33" width="4.2" height="4.2" transform="translate(957.37 180.86) rotate(180)"/><rect class="d" x="479.34" y="84.25" width="4.2" height="4.2" transform="translate(957.37 160.7) rotate(180)"/><rect class="d" x="479.34" y="74.17" width="4.2" height="4.2" transform="translate(957.37 140.54) rotate(180)"/><rect class="d" x="479.34" y="79.21" width="4.2" height="4.2" transform="translate(957.37 150.62) rotate(180)"/><rect class="d" x="479.34" y="69.13" width="4.2" height="4.2" transform="translate(957.37 130.46) rotate(180)"/><rect class="d" x="479.34" y="59.05" width="4.2" height="4.2" transform="translate(957.37 110.29) rotate(180)"/><rect class="d" x="479.34" y="64.09" width="4.2" height="4.2" transform="translate(957.37 120.37) rotate(180)"/><rect class="d" x="479.34" y="54.01" width="4.2" height="4.2" transform="translate(957.37 100.21) rotate(180)"/><rect class="d" x="479.34" y="43.92" width="4.2" height="4.2" transform="translate(957.37 80.05) rotate(180)"/><rect class="d" x="479.34" y="48.96" width="4.2" height="4.2" transform="translate(957.37 90.13) rotate(180)"/><rect class="d" x="479.34" y="38.88" width="4.2" height="4.2" transform="translate(957.37 69.97) rotate(180)"/><rect class="d" x="479.34" y="28.8" width="4.2" height="4.2" transform="translate(957.37 49.8) rotate(180)"/><rect class="d" x="479.34" y="33.84" width="4.2" height="4.2" transform="translate(957.37 59.89) rotate(180)"/><rect class="d" x="479.34" y="18.44" width="4.2" height="4.2" transform="translate(957.37 29.08) rotate(180)"/><rect class="d" x="479.34" y="23.48" width="4.2" height="4.2" transform="translate(957.37 39.16) rotate(180)"/><rect class="d" x="486.34" y="144.74" width="4.2" height="4.2" transform="translate(971.37 281.68) rotate(180)"/><rect class="d" x="486.34" y="134.66" width="4.2" height="4.2" transform="translate(971.37 261.52) rotate(180)"/><rect class="d" x="486.34" y="139.7" width="4.2" height="4.2" transform="translate(971.37 271.6) rotate(180)"/><rect class="d" x="486.34" y="129.62" width="4.2" height="4.2" transform="translate(971.37 251.43) rotate(180)"/><rect class="d" x="486.34" y="119.54" width="4.2" height="4.2" transform="translate(971.37 231.27) rotate(180)"/><rect class="d" x="486.34" y="124.58" width="4.2" height="4.2" transform="translate(971.37 241.35) rotate(180)"/><rect class="d" x="486.34" y="114.49" width="4.2" height="4.2" transform="translate(971.37 221.19) rotate(180)"/><rect class="d" x="486.34" y="104.41" width="4.2" height="4.2" transform="translate(971.37 201.03) rotate(180)"/><rect class="d" x="486.34" y="109.45" width="4.2" height="4.2" transform="translate(971.37 211.11) rotate(180)"/><rect class="d" x="486.34" y="99.37" width="4.2" height="4.2" transform="translate(971.37 190.95) rotate(180)"/><rect class="d" x="486.34" y="89.29" width="4.2" height="4.2" transform="translate(971.37 170.78) rotate(180)"/><rect class="d" x="486.34" y="94.33" width="4.2" height="4.2" transform="translate(971.37 180.86) rotate(180)"/><rect class="d" x="486.34" y="84.25" width="4.2" height="4.2" transform="translate(971.37 160.7) rotate(180)"/><rect class="d" x="486.34" y="74.17" width="4.2" height="4.2" transform="translate(971.37 140.54) rotate(180)"/><rect class="d" x="486.34" y="79.21" width="4.2" height="4.2" transform="translate(971.37 150.62) rotate(180)"/><rect class="d" x="486.34" y="69.13" width="4.2" height="4.2" transform="translate(971.37 130.46) rotate(180)"/><rect class="d" x="486.34" y="59.05" width="4.2" height="4.2" transform="translate(971.37 110.29) rotate(180)"/><rect class="d" x="486.34" y="64.09" width="4.2" height="4.2" transform="translate(971.37 120.37) rotate(180)"/><rect class="d" x="486.34" y="54.01" width="4.2" height="4.2" transform="translate(971.37 100.21) rotate(180)"/><rect class="d" x="486.34" y="43.92" width="4.2" height="4.2" transform="translate(971.37 80.05) rotate(180)"/><rect class="d" x="486.34" y="48.96" width="4.2" height="4.2" transform="translate(971.37 90.13) rotate(180)"/><rect class="d" x="486.34" y="38.88" width="4.2" height="4.2" transform="translate(971.37 69.97) rotate(180)"/><rect class="d" x="486.34" y="28.8" width="4.2" height="4.2" transform="translate(971.37 49.8) rotate(180)"/><rect class="d" x="486.34" y="33.84" width="4.2" height="4.2" transform="translate(971.37 59.89) rotate(180)"/><rect class="d" x="486.34" y="18.44" width="4.2" height="4.2" transform="translate(971.37 29.08) rotate(180)"/><rect class="d" x="486.34" y="23.48" width="4.2" height="4.2" transform="translate(971.37 39.16) rotate(180)"/><rect class="c" x="498.88" y="74.94" width="4.5" height="20" transform="translate(996.75 157.88) rotate(180)"/></svg>