<svg xmlns="http://www.w3.org/2000/svg" xmlns:xlink="http://www.w3.org/1999/xlink" viewBox="0 0 582 555"><defs><style>.a{fill:none;}.b{clip-path:url(#a);}.c{fill:url(#b);}.d{fill:#009444;}.e{fill:#ffde17;}.f{fill:#414042;}.g{fill:#231f20;}</style><clipPath id="a" transform="translate(0 -15)"><circle class="a" cx="302.33" cy="292.5" r="277.5"/></clipPath><linearGradient id="b" x1="291" x2="291" y2="555" gradientUnits="userSpaceOnUse"><stop offset="0" stop-color="#2484c6"/><stop offset="1" stop-color="#2484c6" stop-opacity="0"/></linearGradient></defs><title>Raspberry Pi bent pins</title><g class="b"><rect class="c" width="582" height="555"/><rect class="d" y="318" width="514" height="12"/><rect class="e" x="419.67" y="254.25" width="5.33" height="49.33" rx="1.65" ry="1.65"/><rect class="e" x="399.67" y="254.25" width="5.33" height="49.33" rx="1.65" ry="1.65"/><rect class="e" x="379.67" y="254.25" width="5.33" height="49.33" rx="1.65" ry="1.65"/><rect class="e" x="359.67" y="254.25" width="5.33" height="49.33" rx="1.65" ry="1.65"/><rect class="e" x="339.67" y="254.25" width="5.33" height="49.33" rx="1.65" ry="1.65"/><rect class="e" x="319.67" y="254.25" width="5.33" height="49.33" rx="1.65" ry="1.65"/><rect class="e" x="299.67" y="254.25" width="5.33" height="49.33" rx="1.65" ry="1.65"/><rect class="e" x="279.67" y="254.25" width="5.33" height="49.33" rx="1.65" ry="1.65"/><rect class="e" x="259.67" y="254.25" width="5.33" height="49.33" rx="1.65" ry="1.65"/><rect class="e" x="239.67" y="254.25" width="5.33" height="49.33" rx="1.65" ry="1.65"/><rect class="e" x="219.67" y="254.25" width="5.33" height="49.33" rx="1.65" ry="1.65"/><rect class="e" x="199.67" y="254.25" width="5.33" height="49.33" rx="1.65" ry="1.65"/><rect class="e" x="179.67" y="254.25" width="5.33" height="49.33" rx="1.65" ry="1.65"/><rect class="e" x="154.29" y="270.92" width="5.33" height="49.33" rx="1.65" ry="1.65" transform="translate(-66.82 31.73) rotate(-13.99)"/><rect class="e" x="139.67" y="254.25" width="5.33" height="49.33" rx="1.65" ry="1.65"/><rect class="e" x="119.67" y="254.25" width="5.33" height="49.33" rx="1.65" ry="1.65"/><rect class="e" x="99.67" y="254.58" width="5.33" height="49.33" rx="1.65" ry="1.65"/><rect class="e" x="79.67" y="254.58" width="5.33" height="49.33" rx="1.65" ry="1.65"/><rect class="e" x="59.67" y="254.58" width="5.33" height="49.33" rx="1.65" ry="1.65"/><rect class="e" x="39.67" y="254.58" width="5.33" height="49.33" rx="1.65" ry="1.65"/><rect class="f" x="25.93" y="302" width="414.07" height="17"/><polygon class="g" points="163.25 235.46 163.25 278.46 172.25 287.46 432.25 287.46 440.75 278.96 440.75 235.46 163.25 235.46"/></g></svg>