<svg xmlns="http://www.w3.org/2000/svg" viewBox="0 0 509.56 333.06"><defs><style>.a{fill:#2b3990;}.b{fill:none;stroke:#e6e7e8;stroke-width:9px;}.b,.g,.j{stroke-miterlimit:10;}.c{font-size:18.82px;fill:#f9ed32;font-family:Arial;font-weight:700;}.d{letter-spacing:-1px;}.e{fill:#231f20;}.f{fill:#e6e7e8;}.g,.j{stroke:#231f20;}.h{fill:#efefef;}.i{fill:#fff385;}.j,.l{fill:#6d6e71;}.j{stroke-width:5px;}.k{fill:#f9ef67;}</style></defs><title>Waveshare 2,8 inch RPi display with IDC male socket</title><path class="a" d="M511.06,14.86H16.55A7.53,7.53,0,0,0,9,22.38v318a7.53,7.53,0,0,0,7.53,7.53H511.06a7.53,7.53,0,0,0,7.53-7.53v-318A7.53,7.53,0,0,0,511.06,14.86ZM35.4,329.3a7,7,0,1,1,7-7A7,7,0,0,1,35.4,329.3Zm0-280.5a7,7,0,1,1,7-7A7,7,0,0,1,35.4,48.8ZM344.66,329.3a7,7,0,1,1,7-7A7,7,0,0,1,344.66,329.3Z" transform="translate(-9.03 -14.86)"/><circle class="b" cx="26.37" cy="26.95" r="10.96"/><circle class="b" cx="26.37" cy="307.45" r="10.96"/><circle class="b" cx="335.63" cy="307.45" r="10.96"/><text class="c" transform="translate(82.37 22.93)">2.8inch RPi LCD<tspan x="0" y="22.58">320x240 Pixel</tspan><tspan x="0" y="45.17">XPT2046 </tspan><tspan class="d" x="83.7" y="45.17">T</tspan><tspan x="93.8" y="45.17">ouch Controller</tspan></text><rect class="e" x="66.18" y="289.57" width="192.4" height="30.75"/><rect class="f" x="71.41" y="295.12" width="7.49" height="7.49"/><rect class="f" x="85.91" y="295.12" width="7.49" height="7.49"/><rect class="f" x="100.42" y="295.12" width="7.49" height="7.49"/><rect class="f" x="114.93" y="295.12" width="7.49" height="7.49"/><rect class="f" x="129.43" y="295.12" width="7.49" height="7.49"/><rect class="f" x="143.94" y="295.12" width="7.49" height="7.49"/><rect class="f" x="158.41" y="295.12" width="7.49" height="7.49"/><rect class="f" x="172.91" y="295.12" width="7.49" height="7.49"/><rect class="f" x="187.42" y="295.12" width="7.49" height="7.49"/><rect class="f" x="201.93" y="295.12" width="7.49" height="7.49"/><rect class="f" x="216.43" y="295.12" width="7.49" height="7.49"/><rect class="f" x="230.94" y="295.12" width="7.49" height="7.49"/><rect class="f" x="245.44" y="295.12" width="7.49" height="7.49"/><rect class="f" x="71.39" y="307.28" width="7.49" height="7.49"/><rect class="f" x="85.9" y="307.28" width="7.49" height="7.49"/><rect class="f" x="100.4" y="307.28" width="7.49" height="7.49"/><rect class="f" x="114.91" y="307.28" width="7.49" height="7.49"/><rect class="f" x="129.41" y="307.28" width="7.49" height="7.49"/><rect class="f" x="143.92" y="307.28" width="7.49" height="7.49"/><rect class="f" x="158.39" y="307.28" width="7.49" height="7.49"/><rect class="f" x="172.9" y="307.28" width="7.49" height="7.49"/><rect class="f" x="187.4" y="307.28" width="7.49" height="7.49"/><rect class="f" x="201.91" y="307.28" width="7.49" height="7.49"/><rect class="f" x="216.41" y="307.28" width="7.49" height="7.49"/><rect class="f" x="230.92" y="307.28" width="7.49" height="7.49"/><rect class="f" x="245.43" y="307.28" width="7.49" height="7.49"/><rect class="g" x="317.2" y="130.45" width="42.67" height="32"/><rect class="h" x="322.12" y="118.95" width="2.25" height="11"/><rect class="h" x="326.62" y="118.95" width="2.25" height="11"/><rect class="h" x="331.28" y="118.95" width="2.25" height="11"/><rect class="h" x="335.78" y="118.95" width="2.25" height="11"/><rect class="h" x="340.03" y="118.95" width="2.25" height="11"/><rect class="h" x="344.53" y="118.95" width="2.25" height="11"/><rect class="h" x="349.2" y="118.95" width="2.25" height="11"/><rect class="h" x="353.7" y="118.95" width="2.25" height="11"/><rect class="h" x="322.12" y="162.95" width="2.25" height="11"/><rect class="h" x="326.62" y="162.95" width="2.25" height="11"/><rect class="h" x="331.28" y="162.95" width="2.25" height="11"/><rect class="h" x="335.78" y="162.95" width="2.25" height="11"/><rect class="h" x="340.03" y="162.95" width="2.25" height="11"/><rect class="h" x="344.53" y="162.95" width="2.25" height="11"/><rect class="h" x="349.2" y="162.95" width="2.25" height="11"/><rect class="h" x="353.7" y="162.95" width="2.25" height="11"/><rect x="315.69" y="83.11" width="7.63" height="17.33"/><rect x="326.42" y="83.11" width="7.63" height="17.33"/><rect x="337.52" y="83.11" width="7.63" height="17.33"/><rect x="348.25" y="83.11" width="7.63" height="17.33"/><rect x="300.97" y="185.11" width="7.63" height="17.33"/><rect x="311.7" y="185.11" width="7.63" height="17.33"/><rect x="322.8" y="185.11" width="7.62" height="17.33"/><rect x="333.53" y="185.11" width="7.63" height="17.33"/><rect x="344.64" y="185.11" width="7.63" height="17.33"/><rect x="355.37" y="185.11" width="7.63" height="17.33"/><rect x="366.47" y="185.11" width="7.63" height="17.33"/><rect x="377.2" y="185.11" width="7.63" height="17.33"/><rect class="i" x="376.37" y="160.11" width="18.42" height="18.42"/><rect class="i" x="399.37" y="160.11" width="18.42" height="18.42"/><rect class="i" x="383.42" y="140.95" width="4.78" height="8.8"/><rect class="i" x="390" y="140.95" width="4.78" height="8.8"/><rect class="i" x="386.91" y="129.95" width="4.78" height="8.8"/><rect class="i" x="296.53" y="264.22" width="18.42" height="18.42" transform="translate(23.28 564.31) rotate(-90)"/><rect class="i" x="296.53" y="241.22" width="18.42" height="18.42" transform="translate(46.28 541.31) rotate(-90)"/><rect class="i" x="279.38" y="268.79" width="4.78" height="8.8" transform="translate(-0.45 540.11) rotate(-90)"/><rect class="i" x="279.38" y="262.21" width="4.78" height="8.8" transform="translate(6.13 533.52) rotate(-90)"/><rect class="i" x="268.38" y="265.3" width="4.78" height="8.8" transform="translate(-7.96 525.61) rotate(-90)"/><rect class="i" x="320.73" y="241.22" width="18.42" height="18.42" transform="translate(571.33 -94.37) rotate(90)"/><rect class="i" x="320.73" y="264.22" width="18.42" height="18.42" transform="translate(594.33 -71.37) rotate(90)"/><rect class="i" x="351.52" y="246.26" width="4.78" height="8.8" transform="translate(595.54 -118.1) rotate(90)"/><rect class="i" x="351.52" y="252.84" width="4.78" height="8.8" transform="translate(602.12 -111.52) rotate(90)"/><rect class="i" x="362.52" y="249.75" width="4.78" height="8.8" transform="translate(610.03 -125.62) rotate(90)"/><rect class="j" x="10.18" y="68.92" width="38" height="196.33"/><circle class="k" cx="22.33" cy="84.67" r="4.15"/><circle class="k" cx="22.33" cy="98.67" r="4.15"/><circle class="k" cx="22.33" cy="112.67" r="4.15"/><circle class="k" cx="22.33" cy="126.67" r="4.15"/><circle class="k" cx="22.33" cy="141.32" r="4.15"/><circle class="k" cx="22.33" cy="155.32" r="4.15"/><circle class="k" cx="22.33" cy="169.32" r="4.15"/><circle class="k" cx="22.33" cy="183.32" r="4.15"/><circle class="k" cx="22.33" cy="197.32" r="4.15"/><circle class="k" cx="22.33" cy="211.32" r="4.15"/><circle class="k" cx="22.33" cy="225.32" r="4.15"/><circle class="k" cx="22.33" cy="239.32" r="4.15"/><circle class="k" cx="22.33" cy="253.97" r="4.15"/><circle class="k" cx="36.33" cy="84.67" r="4.15"/><circle class="k" cx="36.33" cy="98.67" r="4.15"/><circle class="k" cx="36.33" cy="112.67" r="4.15"/><circle class="k" cx="36.33" cy="126.67" r="4.15"/><circle class="k" cx="36.33" cy="141.32" r="4.15"/><circle class="k" cx="36.33" cy="155.32" r="4.15"/><circle class="k" cx="36.33" cy="169.32" r="4.15"/><circle class="k" cx="36.33" cy="183.32" r="4.15"/><circle class="k" cx="36.33" cy="197.32" r="4.15"/><circle class="k" cx="36.33" cy="211.32" r="4.15"/><circle class="k" cx="36.33" cy="225.32" r="4.15"/><circle class="k" cx="36.33" cy="239.32" r="4.15"/><circle class="k" cx="36.33" cy="253.97" r="4.15"/><rect class="l" x="45.03" y="156.17" width="5.67" height="21.83"/></svg>