<?xml version="1.0" encoding="iso-8859-1"?>
<!-- Generator: Adobe Illustrator 17.1.0, SVG Export Plug-In . SVG Version: 6.00 Build 0)  -->
<!DOCTYPE svg PUBLIC "-//W3C//DTD SVG 1.1//EN" "http://www.w3.org/Graphics/SVG/1.1/DTD/svg11.dtd">
<svg xmlns="http://www.w3.org/2000/svg" xmlns:xlink="http://www.w3.org/1999/xlink" version="1.1" id="Capa_1" x="0px" y="0px" viewBox="0 0 346 346" style="enable-background:new 0 0 346 346;" xml:space="preserve" width="512px" height="512px">
<g>
	<path d="M283,43h-42.109C239.339,19.03,219.355,0,195,0h-44c-24.355,0-44.339,19.03-45.892,43H63c-8.271,0-15,6.729-15,15v20   c0,8.271,6.729,15,15,15h220c8.271,0,15-6.729,15-15V58C298,49.729,291.271,43,283,43z M135.292,43c1.409-7.392,7.912-13,15.708-13   h44c7.796,0,14.299,5.608,15.708,13H135.292z" fill="#FFFFFF"/>
	<path d="M273.166,122h-201c-4.04,0-7.784,1.592-10.542,4.482c-2.759,2.891-4.174,6.705-3.985,10.74l9.066,194.021   C67.085,339.38,74.021,346,82.166,346h181c8.145,0,15.081-6.62,15.461-14.756l9.066-194.021c0.189-4.036-1.227-7.85-3.985-10.74   C280.951,123.592,277.206,122,273.166,122z M130,286c0,8.284-6.716,15-15,15c-8.284,0-15-6.716-15-15V177c0-8.284,6.716-15,15-15   c8.284,0,15,6.716,15,15V286z M188,286c0,8.284-6.716,15-15,15c-8.284,0-15-6.716-15-15V177c0-8.284,6.716-15,15-15   c8.284,0,15,6.716,15,15V286z M246,286c0,8.284-6.716,15-15,15c-8.284,0-15-6.716-15-15V177c0-8.284,6.716-15,15-15   c8.284,0,15,6.716,15,15V286z" fill="#FFFFFF"/>
</g>
<g>
</g>
<g>
</g>
<g>
</g>
<g>
</g>
<g>
</g>
<g>
</g>
<g>
</g>
<g>
</g>
<g>
</g>
<g>
</g>
<g>
</g>
<g>
</g>
<g>
</g>
<g>
</g>
<g>
</g>
</svg>
